<svg width="10" height="18" viewBox="0 0 10 18" fill="none" xmlns="http://www.w3.org/2000/svg">
<path d="M1.25044 18C1.15174 18.0006 1.05389 17.9817 0.962513 17.9443C0.871135 17.907 0.788023 17.852 0.717942 17.7825C0.647646 17.7128 0.591851 17.6298 0.553774 17.5384C0.515698 17.4471 0.496094 17.349 0.496094 17.25C0.496094 17.151 0.515698 17.053 0.553774 16.9616C0.591851 16.8702 0.647646 16.7872 0.717942 16.7175L6.84544 10.59C7.26679 10.1681 7.50346 9.59627 7.50346 9.00002C7.50346 8.40376 7.26679 7.83189 6.84544 7.41002L0.717942 1.28252C0.576715 1.14129 0.497374 0.949743 0.497374 0.750017C0.497374 0.550291 0.576715 0.358745 0.717942 0.217517C0.85917 0.0762892 1.05072 -0.00305176 1.25044 -0.00305176C1.45017 -0.00305176 1.64171 0.0762892 1.78294 0.217517L7.91044 6.34502C8.25967 6.69336 8.53674 7.10717 8.72579 7.56276C8.91483 8.01835 9.01215 8.50676 9.01215 9.00002C9.01215 9.49327 8.91483 9.98168 8.72579 10.4373C8.53674 10.8929 8.25967 11.3067 7.91044 11.655L1.78294 17.7825C1.71286 17.852 1.62975 17.907 1.53837 17.9443C1.44699 17.9817 1.34915 18.0006 1.25044 18Z" fill="white"/>
</svg>
