<svg width="10" height="18" viewBox="0 0 10 18" fill="none" xmlns="http://www.w3.org/2000/svg">
<path d="M8.74956 18C8.84826 18.0006 8.94611 17.9817 9.03749 17.9443C9.12887 17.907 9.21198 17.852 9.28206 17.7825C9.35235 17.7128 9.40815 17.6298 9.44623 17.5384C9.4843 17.4471 9.50391 17.349 9.50391 17.25C9.50391 17.151 9.4843 17.053 9.44623 16.9616C9.40815 16.8702 9.35235 16.7872 9.28206 16.7175L3.15456 10.59C2.73321 10.1681 2.49654 9.59627 2.49654 9.00002C2.49654 8.40376 2.73321 7.83189 3.15456 7.41002L9.28206 1.28252C9.42329 1.14129 9.50263 0.949743 9.50263 0.750017C9.50263 0.550291 9.42329 0.358745 9.28206 0.217517C9.14083 0.0762892 8.94928 -0.00305176 8.74956 -0.00305176C8.54983 -0.00305176 8.35829 0.0762892 8.21706 0.217517L2.08956 6.34502C1.74033 6.69336 1.46326 7.10717 1.27421 7.56276C1.08517 8.01835 0.987853 8.50676 0.987853 9.00002C0.987853 9.49327 1.08517 9.98168 1.27421 10.4373C1.46326 10.8929 1.74033 11.3067 2.08956 11.655L8.21706 17.7825C8.28714 17.852 8.37025 17.907 8.46163 17.9443C8.55301 17.9817 8.65085 18.0006 8.74956 18Z" fill="white"/>
</svg>
