<svg width="68" height="66" viewBox="0 0 68 66" fill="none" xmlns="http://www.w3.org/2000/svg">
<g clip-path="url(#clip0_19:95)">
<path d="M27.021 26.1747C29.3263 29.0537 31.4305 31.8216 32.4451 33.1373C32.8271 33.6543 32.7587 33.8885 32.7681 34.4773C32.7922 36.0894 32.8123 37.9965 32.7373 39.1348C34.1781 38.8492 35.8373 38.898 37.6239 38.9914V38.1034L34.3255 38.2185C34.3255 38.2185 34.6284 30.4681 34.678 29.6519C34.1526 28.9305 31.4828 25.6238 28.2983 21.6484L22.1089 27.8625L22.0728 31.1449L27.021 26.1747Z" fill="#E36931"/>
<path d="M28.7433 44.725C28.6575 44.299 28.6233 43.864 28.6415 43.4297C28.2277 43.8178 27.8984 44.2886 27.6745 44.8122C27.4507 45.3358 27.3373 45.9008 27.3414 46.4711H29.904C29.3076 45.9581 28.8599 45.3003 28.7433 44.725Z" fill="#E36931"/>
<path d="M48.1157 38.7438L48.168 39.2554C50.228 39.4747 52.5091 39.6236 53.7516 39.7522C53.7234 39.4206 53.6899 39.0659 53.6551 38.6951C51.6192 38.7032 49.2375 38.7113 48.1157 38.7438Z" fill="#E36931"/>
<path d="M42.1663 12.2672L62.9928 31.9192L63.0639 46.4711H67.2938L67.204 27.8626L44.6727 6.61206L35.5454 15.1475C35.5454 15.1475 36.2718 15.8391 37.2985 16.8205L42.1663 12.2672Z" fill="#E36931"/>
<path d="M10.0223 65.0525C10.0044 65.3205 9.88543 65.5715 9.68992 65.7536C9.48141 65.9262 9.21665 66.0141 8.94741 66C8.79481 66.0058 8.64291 65.9762 8.50347 65.9133C8.36402 65.8504 8.24078 65.7559 8.14325 65.6372C7.92974 65.3601 7.8222 65.0147 7.84035 64.664V64.3933C7.83313 64.152 7.8789 63.9121 7.97438 63.6908C8.06 63.4993 8.19993 63.3378 8.37646 63.2266C8.55675 63.1159 8.76461 63.0595 8.97556 63.0641C9.24027 63.0516 9.49955 63.1427 9.69931 63.3186C9.88935 63.5049 10.0044 63.7556 10.0223 64.0224H9.64972C9.63777 63.8375 9.56352 63.6622 9.43929 63.5257C9.31252 63.4142 9.14732 63.3578 8.97958 63.3687C8.87128 63.3646 8.7636 63.3871 8.66579 63.4342C8.56799 63.4814 8.48296 63.5518 8.41801 63.6394C8.26927 63.8635 8.19768 64.1308 8.21429 64.4001V64.6776C8.20084 64.939 8.26829 65.1983 8.40729 65.4193C8.46674 65.5065 8.54708 65.577 8.64083 65.6244C8.73458 65.6717 8.83867 65.6943 8.94339 65.69C9.11453 65.7015 9.28414 65.6511 9.42187 65.5479C9.5535 65.4152 9.63424 65.2397 9.64972 65.0525H10.0223Z" fill="#1C2E38"/>
<path d="M12.4335 63.408H11.5262V65.9608H11.1509V63.408H10.2422V63.0994H12.4335V63.408Z" fill="#1C2E38"/>
<path d="M13.227 64.8415V65.9609H12.853V63.0995H13.8984C14.1627 63.0839 14.423 63.1694 14.6275 63.339C14.7156 63.4185 14.7853 63.5166 14.8317 63.6263C14.878 63.736 14.8998 63.8547 14.8956 63.9739C14.903 64.0934 14.8838 64.2132 14.8392 64.3242C14.7947 64.4353 14.726 64.5348 14.6383 64.6154C14.4274 64.7788 14.1649 64.8591 13.8998 64.8415H13.227ZM13.227 64.5329H13.8971C14.0626 64.5442 14.2264 64.493 14.3568 64.3894C14.4108 64.3373 14.4531 64.2741 14.4806 64.204C14.5081 64.1339 14.5203 64.0586 14.5163 63.9833C14.5191 63.9082 14.5064 63.8332 14.4789 63.7633C14.4515 63.6934 14.4099 63.6301 14.3568 63.5773C14.2362 63.4695 14.0795 63.4124 13.9185 63.4176H13.227V64.5329Z" fill="#1C2E38"/>
<path d="M17.5463 64.6235C17.5541 64.8749 17.5084 65.1251 17.4123 65.3571C17.3285 65.5533 17.1884 65.7198 17.0102 65.8349C16.8778 65.9218 16.7283 65.9787 16.572 66.0017C16.4157 66.0247 16.2564 66.0134 16.1049 65.9684C15.9534 65.9234 15.8133 65.8458 15.6943 65.741C15.5753 65.6362 15.4801 65.5066 15.4153 65.3612C15.3159 65.1369 15.2656 64.8936 15.2679 64.6479V64.4421C15.2635 64.1915 15.3119 63.9428 15.4099 63.7126C15.4915 63.5149 15.6305 63.3468 15.8084 63.2304C15.9864 63.1139 16.1951 63.0546 16.4071 63.0602C16.6189 63.0561 16.8274 63.1139 17.0075 63.2267C17.1864 63.3429 17.3265 63.5108 17.4096 63.7085C17.5054 63.9407 17.5511 64.1908 17.5436 64.4421L17.5463 64.6235ZM17.1751 64.4381C17.1929 64.1625 17.1219 63.8885 16.9727 63.6571C16.9073 63.5689 16.8217 63.4981 16.7231 63.4509C16.6245 63.4038 16.5161 63.3816 16.4071 63.3864C16.2993 63.382 16.1921 63.4044 16.0949 63.4516C15.9977 63.4988 15.9135 63.5694 15.8495 63.6571C15.7008 63.8794 15.6274 64.1444 15.6404 64.4124V64.6235C15.6254 64.8971 15.6972 65.1683 15.8455 65.3977C15.9116 65.4844 15.9961 65.5549 16.0929 65.6038C16.1897 65.6528 16.2963 65.6791 16.4045 65.6807C16.5128 65.6822 16.62 65.659 16.7182 65.6129C16.8163 65.5667 16.9029 65.4987 16.9713 65.414C17.117 65.1875 17.1883 64.9204 17.1751 64.6506V64.4381Z" fill="#1C2E38"/>
<path d="M19.8946 63.0994H20.2672V65.9608H19.8946V63.7518L18.4954 65.9608H18.1201V63.0994H18.4954V65.3043L19.8946 63.0994Z" fill="#1C2E38"/>
<path d="M22.85 63.408H21.94V65.9608H21.5674V63.408H20.6587V63.0994H22.85V63.408Z" fill="#1C2E38"/>
<path d="M24.8726 64.6383H23.6449V65.6467H25.071V65.9553H23.271V63.0994H25.0509V63.408H23.6449V64.3297H24.8726V64.6383Z" fill="#1C2E38"/>
<path d="M27.6792 63.0995V65.9609H27.3052V63.4081H26.2893L26.2384 64.5437C26.2324 64.8328 26.1938 65.1203 26.1231 65.4005C26.0827 65.5641 25.9939 65.7115 25.8684 65.8228C25.7384 65.9172 25.5808 65.9649 25.4208 65.9582H25.2988V65.6469H25.3766C25.481 65.645 25.5807 65.6029 25.6553 65.5291C25.7322 65.4318 25.7829 65.3162 25.8028 65.1934C25.8451 64.9597 25.8693 64.723 25.8751 64.4855L25.9328 63.0981L27.6792 63.0995Z" fill="#1C2E38"/>
<path d="M28.7177 64.2675H29.4227C29.6734 64.2558 29.9195 64.3377 30.1142 64.4976C30.1977 64.5743 30.2633 64.6686 30.3064 64.7739C30.3495 64.8792 30.369 64.9929 30.3635 65.1067C30.3686 65.2217 30.3487 65.3366 30.3055 65.4431C30.2622 65.5497 30.1965 65.6455 30.1129 65.7239C29.9213 65.8854 29.6774 65.9698 29.428 65.9608H28.3438V63.0994H28.7177V64.2675ZM28.7177 64.5761V65.6589H29.4012C29.5593 65.669 29.715 65.6155 29.8341 65.51C29.8868 65.4572 29.9277 65.3937 29.9543 65.3237C29.9808 65.2537 29.9924 65.1788 29.9883 65.104C29.9918 65.0333 29.9804 64.9627 29.9547 64.8969C29.9291 64.8311 29.8898 64.7715 29.8395 64.7223C29.7213 64.6222 29.57 64.5709 29.416 64.5788L28.7177 64.5761Z" fill="#1C2E38"/>
<path d="M33.0347 65.9608H32.6581V64.6383H31.2281V65.9608H30.8555V63.0994H31.2281V64.3297H32.6568V63.0994H33.0334L33.0347 65.9608Z" fill="#1C2E38"/>
<path d="M35.2971 65.2122H34.1096L33.8416 65.9608H33.4556L34.5372 63.0994H34.8642L35.9485 65.9608H35.5652L35.2971 65.2122ZM34.2249 64.9036H35.1872L34.7047 63.565L34.2249 64.9036Z" fill="#1C2E38"/>
<path d="M37.8157 65.9608V64.8468H37.1616L36.5759 65.9608H36.1738L36.8319 64.7426C36.6977 64.6921 36.5785 64.6079 36.4856 64.498C36.3926 64.388 36.3289 64.2559 36.3006 64.1141C36.2723 63.9724 36.2803 63.8257 36.3238 63.6879C36.3672 63.5502 36.4448 63.4259 36.5491 63.3268C36.7603 63.1641 37.0224 63.0834 37.2876 63.0994H38.1976V65.9608H37.8157ZM36.6603 63.9616C36.6567 64.0385 36.669 64.1153 36.6965 64.1871C36.7239 64.2589 36.766 64.3241 36.8198 64.3785C36.8804 64.4336 36.9511 64.476 37.0279 64.5034C37.1047 64.5308 37.1861 64.5427 37.2675 64.5382H37.8157V63.408H37.2796C37.1119 63.3961 36.9459 63.4483 36.8145 63.5542C36.761 63.6067 36.7195 63.6704 36.6929 63.7407C36.6663 63.8111 36.6552 63.8865 36.6603 63.9616Z" fill="#1C2E38"/>
<path d="M40.5924 64.6762H40.248V65.9608H39.874V63.0994H40.248V64.3609H40.5401L41.5306 63.0994H41.9957L40.9141 64.4867L42.0747 65.9608H41.6177L40.5924 64.6762Z" fill="#1C2E38"/>
<path d="M44.5372 64.6235C44.5442 64.8748 44.4985 65.1248 44.4032 65.3571C44.3193 65.5532 44.1793 65.7196 44.0011 65.8349C43.8218 65.9481 43.6134 66.0055 43.402 66C43.192 66.0062 42.985 65.9486 42.8077 65.8347C42.6305 65.7208 42.4911 65.5559 42.4076 65.3612C42.3075 65.1371 42.2572 64.8936 42.2601 64.6478V64.4421C42.2551 64.1914 42.3035 63.9426 42.4022 63.7125C42.4837 63.5151 42.6224 63.3472 42.8001 63.2307C42.9779 63.1143 43.1863 63.0548 43.398 63.0601C43.6099 63.0557 43.8185 63.1135 43.9985 63.2266C44.1772 63.343 44.3173 63.5109 44.4005 63.7085C44.4957 63.9408 44.5414 64.1908 44.5346 64.4421L44.5372 64.6235ZM44.166 64.438C44.1831 64.1622 44.1111 63.8881 43.9609 63.6571C43.8955 63.5687 43.8096 63.4978 43.7107 63.4506C43.6119 63.4034 43.5032 63.3813 43.394 63.3863C43.2862 63.3821 43.1791 63.4045 43.0819 63.4517C42.9847 63.4989 42.9004 63.5694 42.8364 63.6571C42.6888 63.8799 42.6155 64.1445 42.6274 64.4123V64.6235C42.6123 64.897 42.6841 65.1683 42.8324 65.3977C42.8985 65.4844 42.983 65.5548 43.0799 65.6038C43.1767 65.6528 43.2832 65.6791 43.3914 65.6806C43.4997 65.6822 43.6069 65.659 43.7051 65.6128C43.8032 65.5667 43.8898 65.4987 43.9582 65.414C44.105 65.1879 44.1768 64.9205 44.1633 64.6506L44.166 64.438Z" fill="#1C2E38"/>
<path d="M45.5797 63.0994L46.5071 65.4342L47.4333 63.0994H47.9171V65.9608H47.5432V64.8468L47.5794 63.6435L46.6492 65.9608H46.3624L45.4349 63.6503L45.4711 64.8468V65.9608H45.0972V63.0994H45.5797Z" fill="#1C2E38"/>
<path d="M50.741 65.9608H50.3657V63.408H48.9678V65.9608H48.5952V63.0994H50.7396L50.741 65.9608Z" fill="#1C2E38"/>
<path d="M52.9847 65.2122H51.7986L51.5305 65.9608H51.1445L52.2261 63.0994H52.5532L53.6374 65.9608H53.2541L52.9847 65.2122ZM51.9125 64.9036H52.8748L52.3923 63.565L51.9125 64.9036Z" fill="#1C2E38"/>
<path d="M56.1971 65.9608H55.8218V64.6383H54.3931V65.9608H54.0205V63.0994H54.3931V64.3297H55.8218V63.0994H56.1971V65.9608Z" fill="#1C2E38"/>
<path d="M58.6488 63.0994H59.0214V65.9608H58.6488V63.7518L57.2522 65.9567H56.877V63.0994H57.2522V65.3043L58.6488 63.0994Z" fill="#1C2E38"/>
<path d="M61.1858 65.9608V64.8468H60.5317L59.946 65.9608H59.5439L60.202 64.7426C60.0678 64.6921 59.9486 64.6079 59.8557 64.498C59.7627 64.388 59.6991 64.2559 59.6707 64.1141C59.6424 63.9724 59.6504 63.8257 59.6939 63.6879C59.7374 63.5502 59.8149 63.4259 59.9192 63.3268C60.1304 63.1641 60.3925 63.0834 60.6577 63.0994H61.5584V65.9608H61.1858ZM60.0291 63.9616C60.0257 64.0386 60.0382 64.1155 60.0659 64.1873C60.0936 64.2591 60.1358 64.3242 60.19 64.3785C60.2505 64.4336 60.3212 64.476 60.398 64.5034C60.4748 64.5308 60.5563 64.5427 60.6376 64.5382H61.1858V63.408H60.6497C60.482 63.3961 60.316 63.4483 60.1846 63.5542C60.131 63.6067 60.0893 63.6703 60.0624 63.7406C60.0356 63.811 60.0242 63.8864 60.0291 63.9616Z" fill="#1C2E38"/>
<path d="M64.4872 60.6981L68 54.6464L63.5851 47.478H34.9275H32.9653H4.30897L0 55.3313L4.14814 60.6981H64.4872Z" fill="#1C2E38"/>
<path d="M53.2732 40.2881C52.4289 40.1447 49.9132 39.8618 47.502 39.6114V38.2578C49.5339 38.2077 56.0462 38.0453 56.3358 38.0304C56.6762 38.0128 56.8129 36.1842 56.3358 33.913C55.8586 31.6417 49.3663 31.4928 49.3529 31.3778C49.1224 26.505 48.92 25.1217 47.0919 24.5735C45.7978 24.2138 44.4761 23.9638 43.1408 23.8264C42.0324 22.6718 29.7622 11.3142 29.7622 11.3142L17.2588 0C17.2588 0 15.7952 1.92067 15.4293 3.8224C14.7324 3.26339 14.0167 2.65835 14.0167 2.65835L8.92366 22.8085C8.20853 23.2794 7.53379 23.81 6.90655 24.3949C5.05295 26.0814 1.5401 28.8561 0.804292 31.9436C-0.14194 35.927 2.28529 39.6587 2.76913 40.2408C4.51818 42.3388 6.25384 42.8937 8.30847 43.09C10.2867 43.2795 12.5853 42.5039 13.4913 42.1574L16.842 41.0745V41.1057L19.7611 40.1704L19.3108 39.1227L17.5148 39.5464C17.4183 39.384 17.3044 39.1985 17.169 38.9874L18.9006 38.4324L18.4503 37.3848L16.4721 37.8504C16.338 37.6122 16.196 37.3618 16.0566 37.1033L18.0938 36.4563L17.6435 35.4086L15.4508 35.927C15.3275 35.6798 15.2046 35.428 15.0822 35.1718L17.303 34.4611L16.8527 33.4135L14.5179 33.9644C14.4286 33.7587 14.3352 33.5525 14.2378 33.3458L16.6356 32.577L16.1852 31.5294L13.699 32.1168C12.5598 29.4666 11.5546 26.8475 10.9904 25.318L18.8779 8.91983C21.3507 11.2263 32.6411 25.4114 35.5977 29.2365C35.5589 29.74 35.5187 30.2922 35.4637 30.9C35.2788 33.1471 35.2073 35.4023 35.2493 37.6569H38.222V39.4232C36.4555 39.3312 34.6488 39.3596 33.2375 39.6642C30.3077 40.2963 28.7422 41.6728 29.2395 44.139C29.462 45.2394 30.943 46.6511 32.2846 46.6511H50.8232C53.3 46.6511 54.8078 46.2843 55.7822 45.3544C57.148 44.0429 57.7055 41.0394 53.2732 40.2881ZM12.2985 41.1314C11.1968 40.5223 9.78143 39.7264 8.94108 39.1999C7.41585 38.2429 5.45637 36.0069 5.74587 33.4974C5.89464 32.2468 6.36374 31.1044 6.87706 30.1461C6.5956 31.6147 6.60901 33.3946 7.23759 35.4479C7.67854 36.8894 10.6097 39.6384 12.2985 41.1314ZM9.53482 23.7235C9.53482 23.7235 9.52678 22.615 9.49059 22.5906L14.8517 4.80101L15.432 5.1042L9.53482 23.7235ZM48.2043 27.439C48.3544 28.3107 48.3236 31.2654 48.2271 30.5291C48.1306 29.7928 47.8143 27.822 47.502 27.577C46.8654 27.064 43.835 26.5903 42.9585 27.9655C42.4546 28.7587 41.6625 34.6547 41.7107 33.5732C41.759 32.4917 41.8085 30.1366 41.9533 28.2213C42.098 26.3061 42.669 26.2032 43.1689 26.1057C44.3484 25.8783 47.8679 25.4939 48.2043 27.439ZM30.1026 16.3778L17.6917 3.15104C17.6917 3.15104 21.1308 6.31427 30.7285 15.808L30.1026 16.3778ZM37.3763 29.2893C37.3763 29.2893 37.5371 27.0153 38.0598 26.7717C38.5825 26.528 39.3853 26.3656 39.8276 26.6499C40.2699 26.9341 40.5125 27.1777 40.3101 28.3553C40.1828 29.1079 39.8276 31.3697 39.8276 31.3697C39.8276 31.3697 39.8182 28.8534 39.7486 28.1117C39.6681 27.259 39.0958 26.9747 38.4217 27.2183C37.7475 27.462 37.3763 29.2852 37.3763 29.2852V29.2893ZM39.9576 41.0434C38.2153 41.0434 33.4144 41.1788 32.6666 43.274C32.3382 44.1945 32.5794 44.9809 33.4144 45.5372C32.0031 44.8279 30.8264 43.584 31.6305 42.2981C33.8661 38.7722 48.9656 40.6306 50.2375 41.0394L39.9576 41.0434Z" fill="#1C2E38"/>
<path d="M9.72642 55.8485V58.3161H7.94922V51.0448H10.8978C11.4127 51.035 11.9234 51.1399 12.3936 51.3521C12.8076 51.5362 13.1583 51.8403 13.4012 52.2258C13.644 52.6113 13.7682 53.0609 13.758 53.5178C13.7694 53.8423 13.7055 54.165 13.5715 54.4602C13.4375 54.7554 13.2369 55.0148 12.986 55.2178C12.4713 55.6428 11.765 55.8549 10.867 55.854L9.72642 55.8485ZM9.72642 54.495H10.8911C11.176 54.5153 11.4577 54.4242 11.6779 54.2405C11.7706 54.1469 11.8426 54.0344 11.8888 53.9104C11.935 53.7865 11.9545 53.654 11.9459 53.5218C11.9606 53.2249 11.8607 52.9337 11.6671 52.7097C11.5697 52.6066 11.4517 52.5256 11.3209 52.4721C11.1901 52.4187 11.0495 52.394 10.9085 52.3997H9.72642V54.495Z" fill="white"/>
<path d="M19.2704 55.2244H16.4759V56.9624H19.777V58.3159H14.6987V51.0447H19.7918V52.3982H16.4813V53.9318H19.2758L19.2704 55.2244Z" fill="white"/>
<path d="M25.4734 52.3982H22.2674V58.3159H20.4902V51.0447H25.4734V52.3982Z" fill="white"/>
<path d="M30.6077 51.0447H32.3849V58.3159H30.6077V53.7355L27.9593 58.32H26.1821V51.0447H27.9593V55.6305L30.6077 51.0447Z" fill="white"/>
<path d="M39.711 54.8307C39.723 55.4812 39.5853 56.1257 39.3089 56.7134C39.0612 57.2374 38.6658 57.6758 38.1723 57.9736C37.6633 58.2737 37.0823 58.4268 36.493 58.4162C35.908 58.4268 35.331 58.2791 34.8216 57.9885C34.3341 57.702 33.9393 57.2788 33.6851 56.7703C33.4052 56.2045 33.2589 55.5809 33.2576 54.9484V54.5424C33.2456 53.8909 33.3832 53.2456 33.6596 52.6569C33.907 52.1319 34.3036 51.6932 34.7989 51.3967C35.3119 51.1065 35.8902 50.9541 36.4782 50.9541C37.0663 50.9541 37.6445 51.1065 38.1576 51.3967C38.65 51.6933 39.0467 52.1277 39.2995 52.6474C39.5802 53.2258 39.7217 53.8631 39.7123 54.5072L39.711 54.8307ZM37.9029 54.5261C37.9029 53.8042 37.781 53.2556 37.537 52.8802C37.4264 52.7014 37.271 52.5553 37.0865 52.4566C36.9019 52.358 36.6949 52.3103 36.4863 52.3185C35.5928 52.3185 35.1219 52.9777 35.0736 54.296V54.8307C35.0736 55.5426 35.1933 56.0904 35.4328 56.4739C35.5437 56.6583 35.7019 56.8089 35.8906 56.91C36.0794 57.011 36.2917 57.0586 36.505 57.0478C36.7121 57.055 36.9175 57.0066 37.1 56.9074C37.2825 56.8082 37.4356 56.6619 37.5437 56.4833C37.7859 56.107 37.9087 55.5656 37.9123 54.8591L37.9029 54.5261Z" fill="white"/>
<path d="M46.7905 58.3159H45.0227V55.2799H42.4051V58.3159H40.6279V51.0447H42.4051V53.9318H45.0227V51.0447H46.7905V58.3159Z" fill="white"/>
<path d="M54.5118 50.9405V52.2629H54.4354C53.7975 52.2629 53.2734 52.4136 52.8633 52.715C52.661 52.8633 52.4899 53.0507 52.3599 53.2663C52.2299 53.4819 52.1436 53.7215 52.106 53.9711C52.3004 53.7851 52.5294 53.64 52.7797 53.544C53.03 53.4481 53.2967 53.4032 53.5642 53.4121C53.8532 53.4008 54.1409 53.4571 54.4048 53.5766C54.6687 53.6961 54.9016 53.8756 55.0855 54.101C55.4652 54.5594 55.6546 55.1622 55.6537 55.9094C55.6576 56.3559 55.5428 56.7952 55.3213 57.1817C55.1032 57.5659 54.7822 57.8802 54.3952 58.0886C53.9902 58.3088 53.5364 58.4215 53.0764 58.4161C52.5863 58.4242 52.1026 58.3029 51.6731 58.0642C51.2627 57.8295 50.9284 57.4797 50.7108 57.0572C50.4742 56.5907 50.3528 56.0734 50.357 55.5493V54.8725C50.3457 54.1683 50.5136 53.4729 50.8448 52.8531C51.1671 52.2591 51.6513 51.7711 52.2401 51.4467C52.8554 51.1045 53.548 50.9291 54.2505 50.9378L54.5118 50.9405ZM52.9718 54.7006C52.7718 54.6936 52.5743 54.7474 52.4049 54.855C52.2607 54.9494 52.1437 55.0806 52.0658 55.2353V55.7388C52.0658 56.6574 52.3884 57.1167 53.0335 57.1167C53.1613 57.117 53.2873 57.0858 53.4006 57.0259C53.5138 56.966 53.6109 56.8792 53.6835 56.7729C53.864 56.5228 53.9561 56.2187 53.9449 55.9094C53.9582 55.5962 53.8634 55.2881 53.6768 55.0377C53.5941 54.9292 53.487 54.8421 53.3645 54.7836C53.2419 54.725 53.1074 54.6966 52.9718 54.7006Z" fill="white"/>
<path d="M56.4966 54.7642L56.9469 51.0447H61.2505V52.3536H58.3288L58.1679 53.7978C58.319 53.7157 58.4798 53.6534 58.6464 53.6123C58.8354 53.5595 59.0306 53.5322 59.2267 53.5311C59.9585 53.5311 60.5214 53.7454 60.9155 54.1741C61.3095 54.6027 61.5061 55.2028 61.5052 55.9743C61.5109 56.4168 61.4018 56.8531 61.1889 57.2398C60.9836 57.612 60.6746 57.9151 60.3003 58.1115C59.881 58.3233 59.4166 58.4278 58.948 58.4161C58.4989 58.4186 58.0548 58.3221 57.6465 58.1332C57.2665 57.9663 56.9378 57.6994 56.695 57.3603C56.4665 57.0368 56.3476 56.6476 56.3559 56.2504H58.0674C58.0716 56.4865 58.164 56.7123 58.3261 56.8825C58.4069 56.9617 58.503 57.0234 58.6083 57.0636C58.7136 57.1039 58.8261 57.122 58.9386 57.1167C59.5122 57.1167 59.799 56.6984 59.799 55.8619C59.799 55.0877 59.4479 54.7006 58.7456 54.7006C58.3471 54.7006 58.05 54.8269 57.8543 55.0796L56.4966 54.7642Z" fill="white"/>
</g>
<defs>
<clipPath id="clip0_19:95">
<rect width="68" height="66" fill="white"/>
</clipPath>
</defs>
</svg>
