<svg width="14" height="14" viewBox="0 0 14 14" xmlns="http://www.w3.org/2000/svg">
<path d="M12.95 1.26172C12.6221 0.98751 12.2378 0.788863 11.8244 0.679881C11.4111 0.5709 10.9788 0.554257 10.5583 0.631135L8.32883 1.03597C7.8141 1.13049 7.34609 1.39532 7 1.78789C6.65301 1.39464 6.18366 1.12976 5.66767 1.03597L3.44167 0.631135C3.02118 0.55419 2.58891 0.570614 2.17547 0.679246C1.76203 0.787878 1.37752 0.986061 1.04916 1.25977C0.720806 1.53347 0.456625 1.87601 0.275323 2.26313C0.0940206 2.65025 2.84739e-05 3.0725 0 3.49997L0 9.79589C3.35159e-05 10.4789 0.239736 11.1402 0.677328 11.6645C1.11492 12.1889 1.72265 12.5431 2.39458 12.6653L6.06142 13.3321C6.68206 13.4448 7.31794 13.4448 7.93858 13.3321L11.6083 12.6653C12.2797 12.5424 12.8868 12.188 13.3238 11.6637C13.7608 11.1394 14.0001 10.4784 14 9.79589V3.49997C14.0003 3.07265 13.9063 2.65052 13.7248 2.26365C13.5433 1.87678 13.2788 1.53468 12.95 1.26172ZM6.41667 12.208C6.36767 12.201 6.31867 12.1928 6.26967 12.1841L2.60342 11.5179C2.2002 11.4445 1.83551 11.232 1.57295 10.9173C1.31039 10.6026 1.1666 10.2057 1.16667 9.79589V3.49997C1.16667 3.03584 1.35104 2.59072 1.67923 2.26253C2.00742 1.93434 2.45254 1.74997 2.91667 1.74997C3.0223 1.75022 3.12771 1.75979 3.23167 1.77855L5.46 2.18689C5.72811 2.23595 5.97058 2.37733 6.14533 2.58649C6.32008 2.79566 6.41608 3.05941 6.41667 3.33197V12.208ZM12.8333 9.79589C12.8334 10.2057 12.6896 10.6026 12.427 10.9173C12.1645 11.232 11.7998 11.4445 11.3966 11.5179L7.73033 12.1841C7.68133 12.1928 7.63233 12.201 7.58333 12.208V3.33197C7.58329 3.05874 7.67915 2.79417 7.85419 2.58437C8.02923 2.37458 8.27235 2.23288 8.54117 2.18397L10.7701 1.77564C11.0225 1.72971 11.2819 1.73985 11.53 1.80533C11.7781 1.87082 12.0087 1.99005 12.2056 2.15457C12.4024 2.3191 12.5607 2.5249 12.6692 2.7574C12.7777 2.9899 12.8337 3.24341 12.8333 3.49997V9.79589Z" fill="#E36931"/>
</svg>
