<svg width="16" height="10" viewBox="0 0 16 10" fill="none" xmlns="http://www.w3.org/2000/svg">
<path d="M15.4133 3.60666L12.8333 0.999994C12.7714 0.937509 12.6976 0.887912 12.6164 0.854067C12.5351 0.820221 12.448 0.802795 12.36 0.802795C12.272 0.802795 12.1849 0.820221 12.1036 0.854067C12.0224 0.887912 11.9486 0.937509 11.8867 0.999994C11.7625 1.1249 11.6928 1.29387 11.6928 1.46999C11.6928 1.64612 11.7625 1.81509 11.8867 1.93999L14.26 4.33333H0.666667C0.489856 4.33333 0.320286 4.40357 0.195262 4.52859C0.0702379 4.65361 0 4.82318 0 4.99999H0C0 5.17681 0.0702379 5.34637 0.195262 5.4714C0.320286 5.59642 0.489856 5.66666 0.666667 5.66666H14.3L11.8867 8.07333C11.8242 8.1353 11.7746 8.20904 11.7407 8.29028C11.7069 8.37152 11.6895 8.45865 11.6895 8.54666C11.6895 8.63467 11.7069 8.72181 11.7407 8.80305C11.7746 8.88429 11.8242 8.95802 11.8867 9.02C11.9486 9.08248 12.0224 9.13208 12.1036 9.16592C12.1849 9.19977 12.272 9.21719 12.36 9.21719C12.448 9.21719 12.5351 9.19977 12.6164 9.16592C12.6976 9.13208 12.7714 9.08248 12.8333 9.02L15.4133 6.43333C15.7879 6.05833 15.9982 5.55 15.9982 5.01999C15.9982 4.48999 15.7879 3.98166 15.4133 3.60666Z" fill="white"/>
</svg>
