<svg width="32" height="32" viewBox="0 0 32 32" fill="none" xmlns="http://www.w3.org/2000/svg">
<g clip-path="url(#clip0_19:378)">
<path d="M4.47748 19.5381C4.35411 19.5381 4.23263 19.5882 4.14558 19.6759C4.05791 19.7629 4.00781 19.8844 4.00781 20.0077C4.00781 20.1311 4.05791 20.2526 4.14558 20.3396C4.23263 20.4273 4.35411 20.4774 4.47748 20.4774C4.60084 20.4774 4.72233 20.4273 4.80938 20.3396C4.89705 20.2526 4.94715 20.1311 4.94715 20.0077C4.94715 19.8844 4.89705 19.7629 4.80938 19.6759C4.72233 19.5882 4.60084 19.5381 4.47748 19.5381Z" fill="black"/>
<path d="M7.48334 19.5381C7.35997 19.5381 7.23849 19.5882 7.15144 19.6759C7.06377 19.7629 7.01367 19.8844 7.01367 20.0077C7.01367 20.1311 7.06377 20.2526 7.15144 20.3396C7.23849 20.4273 7.35997 20.4774 7.48334 20.4774C7.60733 20.4774 7.72819 20.4273 7.81524 20.3396C7.90291 20.2526 7.953 20.1311 7.953 20.0077C7.953 19.8844 7.90291 19.7629 7.81524 19.6759C7.72819 19.5882 7.6067 19.5381 7.48334 19.5381Z" fill="black"/>
<path d="M17.0019 19.5381C16.8779 19.5381 16.757 19.5882 16.67 19.6759C16.5823 19.7629 16.5322 19.8838 16.5322 20.0077C16.5322 20.1311 16.5823 20.2526 16.67 20.3396C16.757 20.4273 16.8785 20.4774 17.0019 20.4774C17.1253 20.4774 17.2467 20.4273 17.3338 20.3396C17.4215 20.2526 17.4716 20.1311 17.4716 20.0077C17.4716 19.8844 17.4215 19.7629 17.3338 19.6759C17.2467 19.5882 17.1259 19.5381 17.0019 19.5381Z" fill="black"/>
<path d="M20.0078 19.5381C19.8844 19.5381 19.7629 19.5882 19.6759 19.6759C19.5882 19.7629 19.5381 19.8844 19.5381 20.0077C19.5381 20.1317 19.5882 20.2526 19.6759 20.3396C19.7629 20.4273 19.8844 20.4774 20.0078 20.4774C20.1311 20.4774 20.2526 20.4273 20.3396 20.3396C20.4273 20.2526 20.4774 20.1311 20.4774 20.0077C20.4774 19.8844 20.4273 19.7629 20.3396 19.6759C20.2526 19.5882 20.1311 19.5381 20.0078 19.5381Z" fill="black"/>
<path d="M31.4634 11.4336L29.7364 10.5701C29.6312 10.5175 29.512 10.5076 29.4016 10.538C29.3615 10.527 29.3195 10.5205 29.2759 10.5205H7.21483C6.94255 10.2128 6.5464 10.0195 6.11337 10.0195H3.97651C3.71713 10.0195 3.50684 10.2298 3.50684 10.4892V12.0234H0.970644C0.435412 12.0234 0 12.4589 0 12.9941V13.996C0 14.5313 0.435412 14.9667 0.970644 14.9667H2.50489V16C2.50489 16.2593 2.71517 16.4696 2.97455 16.4696H4.5088V17.0332H1.9726C1.43737 17.0332 1.00195 17.4686 1.00195 18.0039V18.5951C1.00195 19.0408 1.30862 19.4297 1.73752 19.5369L2.51309 19.8332C2.50802 19.8908 2.50495 19.9489 2.50495 20.0078C2.50495 21.0955 3.38986 21.9804 4.47755 21.9804C5.07916 21.9804 5.61834 21.7093 5.98048 21.2833C6.34263 21.7093 6.8818 21.9804 7.48341 21.9804C8.40928 21.9804 9.18774 21.3391 9.39909 20.4774H10.0195V20.5088C10.0195 21.044 10.455 21.4794 10.9902 21.4794H13.4951C14.0303 21.4794 14.4657 21.044 14.4657 20.5088V20.4774H14.998C15.0276 20.4774 15.0563 20.4744 15.0844 20.4692C15.2927 21.335 16.0731 21.9804 17.0019 21.9804C17.6035 21.9804 18.1427 21.7093 18.5049 21.2833C18.867 21.7093 19.4062 21.9804 20.0078 21.9804C20.9337 21.9804 21.7121 21.3391 21.9235 20.4774H26.5205C27.0557 20.4774 27.4911 20.042 27.4911 19.5068V17.5029C27.4911 17.4828 27.4894 17.4631 27.487 17.4438C27.4864 17.4389 27.4856 17.4341 27.4848 17.4294C27.4822 17.4129 27.4788 17.3967 27.4745 17.3808C27.4739 17.3786 27.4737 17.3762 27.4731 17.3739L26.6787 14.5938C26.4992 13.9654 25.9173 13.5264 25.2637 13.5264H22.5127C22.2533 13.5264 22.043 13.7367 22.043 13.9961V14.5284H21.4629C21.4279 14.3363 21.3362 14.1593 21.1951 14.0183L20.8409 13.664C20.6574 13.4806 20.36 13.4806 20.1767 13.664C19.9933 13.8474 19.9933 14.1448 20.1767 14.3282L20.3769 14.5284H15.499C14.9638 14.5284 14.5283 14.9638 14.5283 15.499V17.0333H7.45204V16.4697H7.92171C8.21522 16.4697 8.45399 16.2309 8.45399 15.9374V15.3206L14.5842 12.9628H29.0971C29.1722 13.216 29.3482 13.4302 29.5932 13.5527L31.0606 14.2864V15.499C31.0606 15.7584 31.2709 15.9687 31.5303 15.9687C31.7896 15.9687 31.9999 15.7584 31.9999 15.499V14.0062C32.0001 13.9997 32.0001 13.9932 31.9999 13.9866V12.3018C31.9999 11.9318 31.7943 11.5991 31.4634 11.4336ZM7.67598 12.0235L7.59544 11.4599H29.0567V12.0235H7.67598ZM4.44618 10.9589H6.11337C6.37657 10.9589 6.60307 11.1554 6.64033 11.4159L6.94186 13.5264H4.44618V10.9589ZM0.939333 13.9961V12.9941C0.939333 12.9769 0.95336 12.9628 0.970644 12.9628H3.50684V13.5264H3.03718C2.75425 13.5264 2.5228 13.7485 2.50645 14.0274H0.970644C0.95336 14.0274 0.939333 14.0133 0.939333 13.9961ZM4.47749 21.0411C3.90775 21.0411 3.44422 20.5776 3.44422 20.0078C3.44422 19.4381 3.90775 18.9746 4.47749 18.9746C5.04722 18.9746 5.51075 19.4381 5.51075 20.0078C5.51075 20.5776 5.04722 21.0411 4.47749 21.0411ZM7.48335 21.0411C6.91361 21.0411 6.45008 20.5776 6.45008 20.0078C6.45008 19.4381 6.91361 18.9746 7.48335 18.9746C8.05309 18.9746 8.51662 19.4381 8.51662 20.0078C8.51662 20.5776 8.05309 21.0411 7.48335 21.0411ZM13.5264 20.5088C13.5264 20.5249 13.5112 20.5401 13.4951 20.5401H10.9902C10.9741 20.5401 10.9589 20.5249 10.9589 20.5088V19.5069C10.9589 19.4908 10.9741 19.4755 10.9902 19.4755H13.4951C13.5112 19.4755 13.5264 19.4908 13.5264 19.5069V20.5088ZM17.0019 21.0411C16.4322 21.0411 15.9687 20.5776 15.9687 20.0078C15.9687 19.4381 16.4322 18.9746 17.0019 18.9746C17.5717 18.9746 18.0352 19.4381 18.0352 20.0078C18.0352 20.5776 17.5717 21.0411 17.0019 21.0411ZM20.0078 21.0411C19.4381 21.0411 18.9745 20.5776 18.9745 20.0078C18.9745 19.4381 19.4381 18.9746 20.0078 18.9746C20.5775 18.9746 21.0411 19.4381 21.0411 20.0078C21.0411 20.5776 20.5775 21.0411 20.0078 21.0411ZM21.9235 19.5382C21.7122 18.6766 20.9337 18.0352 20.0078 18.0352C19.4062 18.0352 18.867 18.3063 18.5049 18.7323C18.1427 18.3063 17.6035 18.0352 17.0019 18.0352C16.0731 18.0352 15.2927 18.6807 15.0844 19.5464C15.0563 19.5412 15.0276 19.5382 14.998 19.5382H14.4657V19.5069C14.4657 18.9716 14.0303 18.5362 13.4951 18.5362H10.9902C10.455 18.5362 10.0195 18.9716 10.0195 19.5069V19.5382H9.39903C9.18774 18.6766 8.40922 18.0352 7.48335 18.0352C6.88174 18.0352 6.34256 18.3063 5.98042 18.7323C5.61827 18.3063 5.0791 18.0352 4.47749 18.0352C3.78138 18.0352 3.16881 18.398 2.81762 18.9441L2.04205 18.6477C2.0175 18.6384 1.99226 18.631 1.96646 18.6258C1.95187 18.6229 1.94129 18.61 1.94129 18.5951V18.0039C1.94129 17.9867 1.95531 17.9726 1.9726 17.9726H22.043V19.5382H21.9235ZM25.7755 14.8518L26.3988 17.0333H25.0176C24.7241 17.0333 24.4853 16.7945 24.4853 16.501V14.4658H25.2637C25.5001 14.4658 25.7106 14.6245 25.7755 14.8518ZM22.9823 14.4658H23.5459V16.501C23.5459 17.3125 24.2061 17.9726 25.0176 17.9726H26.5518V19.5069C26.5518 19.5241 26.5378 19.5382 26.5205 19.5382H22.9823V14.4658ZM22.043 17.0333H21.4794V15.4677H22.043V17.0333ZM15.4677 15.499C15.4677 15.4818 15.4817 15.4677 15.499 15.4677H20.5401V17.0333H15.4677V15.499ZM6.51271 17.0333H5.44813V16.4697H6.51271V17.0333ZM7.51466 15.5303H3.44422V14.4658H7.48141C7.48185 14.4658 7.48229 14.4658 7.48272 14.4658C7.48304 14.4658 7.48329 14.4658 7.4836 14.4658H7.51466V15.5303ZM8.45399 14.3142V14.0587C8.45399 13.7652 8.21522 13.5264 7.92171 13.5264H7.89071L7.81018 12.9628H11.9675L8.45399 14.3142ZM31.0606 13.2361L30.0133 12.7125C30.0027 12.7072 29.996 12.6964 29.996 12.6845V11.7502L31.0433 12.2738C31.054 12.2791 31.0606 12.2899 31.0606 12.3018V13.2361Z" fill="black"/>
</g>
<defs>
<clipPath id="clip0_19:378">
<rect width="32" height="32" fill="white"/>
</clipPath>
</defs>
</svg>
