<svg width="30" height="30" viewBox="0 0 30 30" fill="none" xmlns="http://www.w3.org/2000/svg">
<path d="M28.6204 19.0215H27.5048C26.7263 17.659 25.3376 16.7894 23.775 16.6842L23.4341 15.6614C23.7214 15.4035 23.8943 15.031 23.8943 14.6339V14.0141C23.8943 13.4361 23.5293 12.915 22.9862 12.7175L19.6985 11.5221C19.2759 11.3684 18.8038 11.4307 18.4355 11.6886C18.3859 11.7234 18.3392 11.7613 18.2952 11.8017L17.9711 11.4776L18.5991 10.8496C18.771 10.6776 18.771 10.3988 18.5991 10.2269C18.4271 10.0549 18.1483 10.0549 17.9764 10.2269L16.0977 12.1056C15.9258 12.2775 15.9258 12.5563 16.0977 12.7282C16.1837 12.8142 16.2964 12.8572 16.4091 12.8572C16.5217 12.8572 16.6344 12.8142 16.7204 12.7282L17.3484 12.1002L17.8632 12.615C17.8531 12.682 17.8474 12.7499 17.8474 12.8186V17.1135C17.8474 17.1861 17.865 17.2547 17.8961 17.3151L17.7258 17.3937C17.4156 17.5369 17.0711 17.6126 16.7294 17.6126H14.9706V14.7652C14.9706 14.0045 14.3517 13.3856 13.591 13.3856H11.4532L11.2133 10.9858V6.75148H18.7573C19.5181 6.75148 20.137 6.13258 20.137 5.37184C20.137 4.61109 19.5181 3.99219 18.7573 3.99219H10.3033C9.54258 3.99219 8.92368 4.61109 8.92368 5.37184L8.92386 5.92152C8.92397 6.12125 8.92409 6.26109 8.92386 6.29649C8.92274 6.32919 8.92532 6.36242 8.93184 6.39565C8.97223 6.60236 9.15335 6.75148 9.36399 6.75148H10.3327V10.6591L4.83423 11.9529C3.35513 12.3009 2.17697 13.4248 1.75949 14.8858L0.557554 19.0926C0.230313 19.2307 0 19.5547 0 19.9315V21.015C0 21.3922 0.237299 21.7346 0.590489 21.8671L4.04307 23.1618C4.07448 23.1736 4.10636 23.1811 4.1383 23.1854C4.85489 24.8439 6.50612 26.0078 8.42466 26.0078C10.6869 26.0078 12.5777 24.3898 13.0023 22.2505H16.908V22.2799C16.908 23.0406 17.5269 23.6595 18.2877 23.6595H19.4032C20.2347 25.1147 21.7622 26.0078 23.454 26.0078C25.3855 26.0078 27.1192 24.8114 27.8099 23.0179L28.7055 22.8686C29.4314 22.7476 30 22.0764 30 21.3405V20.4012C30 19.6404 29.3811 19.0215 28.6204 19.0215ZM9.80431 5.37184C9.80431 5.09667 10.0282 4.87281 10.3033 4.87281H18.7573C19.0325 4.87281 19.2564 5.09667 19.2564 5.37184C19.2564 5.647 19.0325 5.87086 18.7573 5.87086H9.80448L9.80431 5.37184ZM26.4492 19.0215H20.4595C21.169 18.1032 22.2643 17.5542 23.4528 17.5538C23.4532 17.5538 23.4535 17.5539 23.454 17.5539C23.4544 17.5539 23.4547 17.5538 23.4551 17.5538C24.6485 17.5542 25.7409 18.1023 26.4492 19.0215ZM18.9407 12.4099C19.0266 12.3497 19.1251 12.3189 19.2254 12.3189C19.2829 12.3189 19.341 12.3291 19.3976 12.3496L22.6852 13.5451C22.8817 13.6166 23.0137 13.805 23.0137 14.0141V14.6339C23.0137 14.8278 22.8999 15.0057 22.7238 15.087L18.728 16.9312V12.8186C18.728 12.6536 18.8055 12.5046 18.9407 12.4099ZM13.591 14.2662C13.8662 14.2662 14.09 14.49 14.09 14.7652V17.5841C14.0203 17.5596 13.9562 17.5202 13.9024 17.4664C13.8929 17.4569 13.883 17.4479 13.8726 17.4392L12.2517 16.0908C11.8726 15.7054 11.6345 15.1979 11.5807 14.6597L11.5414 14.2661H13.591V14.2662ZM0.899648 21.0425C0.888258 21.0383 0.880626 21.0273 0.880626 21.015V19.9315C0.880626 19.9154 0.893601 19.9025 0.909628 19.9022C0.909804 19.9022 0.910039 19.9023 0.910215 19.9023C0.910685 19.9023 0.911155 19.9022 0.911624 19.9022H3.98513C3.83789 20.3555 3.75734 20.8387 3.75734 21.3405C3.75734 21.6133 3.78223 21.8803 3.82732 22.1404L0.899648 21.0425ZM8.42466 25.1272C6.33669 25.1272 4.63796 23.4285 4.63796 21.3405C4.63796 19.2526 6.33669 17.5538 8.42466 17.5538C9.85521 17.5538 11.1028 18.3514 11.7467 19.525C11.7606 19.621 11.8049 19.7071 11.8701 19.7726C12.0886 20.2507 12.2114 20.7814 12.2114 21.3405C12.2114 23.4285 10.5126 25.1272 8.42466 25.1272ZM13.0912 21.3699C13.0913 21.3601 13.092 21.3504 13.092 21.3405C13.092 20.8387 13.0114 20.3555 12.8642 19.9022H15.9393C16.1825 19.9022 16.3796 19.705 16.3796 19.4619C16.3796 19.2187 16.1825 19.0215 15.9393 19.0215H12.4725C11.6663 17.6198 10.1544 16.6732 8.42466 16.6732C6.68213 16.6732 5.16059 17.6337 4.35898 19.0525C4.30896 19.0328 4.25466 19.0215 4.19765 19.0215H1.49372L2.60624 15.1277C2.93613 13.9731 3.86712 13.0851 5.03589 12.8101L10.3848 11.5515L10.7044 14.7474C10.779 15.4937 11.1122 16.1968 11.6425 16.7272C11.652 16.7367 11.662 16.7457 11.6723 16.7543L13.2953 18.1045C13.554 18.3553 13.8939 18.4932 14.2552 18.4932H16.7294C17.1976 18.4932 17.6697 18.3894 18.0948 18.1933L22.6491 16.0913L22.8559 16.7117C21.4115 16.8961 20.1355 17.7422 19.4032 19.0215H18.2877C17.5269 19.0215 16.908 19.6404 16.908 20.4012V21.3699H13.0912ZM23.454 25.1272C22.2602 25.1272 21.1674 24.579 20.4588 23.6595H22.9843C23.5224 23.6595 24.3919 23.5875 24.9226 23.4991L26.7567 23.1934C26.095 24.3711 24.837 25.1272 23.454 25.1272ZM29.1194 21.3405C29.1194 21.6422 28.8584 21.9504 28.5608 21.9999L24.7779 22.6304C24.2951 22.7109 23.4738 22.7789 22.9843 22.7789H18.2877C18.0125 22.7789 17.7887 22.555 17.7887 22.2799V20.4012C17.7887 20.126 18.0125 19.9022 18.2877 19.9022H27.2399C27.2406 19.9022 27.2413 19.9023 27.242 19.9023C27.2428 19.9023 27.2437 19.9022 27.2445 19.9022H28.6204C28.8955 19.9022 29.1194 20.126 29.1194 20.4012V21.3405Z" fill="black"/>
<path d="M10.1339 20.4438C9.89839 20.5045 9.75672 20.7446 9.81743 20.9801C9.8476 21.0969 9.86287 21.2182 9.86287 21.3405C9.86287 22.1336 9.2176 22.7788 8.42451 22.7788C7.63142 22.7788 6.98615 22.1336 6.98615 21.3405C6.98615 20.5474 7.63142 19.9021 8.42451 19.9021C8.54668 19.9021 8.6678 19.9174 8.78457 19.9474C9.01993 20.0081 9.26011 19.8664 9.32075 19.6308C9.3814 19.3953 9.23962 19.1553 9.00414 19.0946C8.81569 19.0461 8.62066 19.0215 8.42445 19.0215C7.14578 19.0215 6.10547 20.0618 6.10547 21.3405C6.10547 22.6191 7.14578 23.6594 8.42445 23.6594C9.70312 23.6594 10.7434 22.6191 10.7434 21.3405C10.7434 21.1441 10.7188 20.9489 10.6701 20.7602C10.6095 20.5247 10.3692 20.383 10.1339 20.4438Z" fill="black"/>
<path d="M23.454 20.9001C23.3383 20.9001 23.2244 20.9471 23.1428 21.0293C23.0606 21.1109 23.0137 21.2248 23.0137 21.3405C23.0137 21.4567 23.0606 21.57 23.1428 21.6516C23.2244 21.7338 23.3383 21.7808 23.454 21.7808C23.5702 21.7808 23.6835 21.7338 23.7651 21.6516C23.8473 21.57 23.8943 21.4567 23.8943 21.3405C23.8943 21.2248 23.8473 21.1109 23.7651 21.0293C23.6835 20.9471 23.5696 20.9001 23.454 20.9001Z" fill="black"/>
</svg>
