<svg width="28" height="17" viewBox="0 0 28 17" fill="none" xmlns="http://www.w3.org/2000/svg">
<path d="M3.04169 12.2756C2.3316 12.2756 1.75391 12.8533 1.75391 13.5634C1.75391 14.2735 2.3316 14.8512 3.04169 14.8512C3.75177 14.8512 4.32947 14.2735 4.32947 13.5634C4.32952 12.8533 3.75182 12.2756 3.04169 12.2756ZM3.04169 14.0293C2.78481 14.0293 2.57582 13.8203 2.57582 13.5634C2.57582 13.3065 2.78481 13.0976 3.04169 13.0976C3.29856 13.0976 3.50755 13.3065 3.50755 13.5634C3.5076 13.8203 3.29862 14.0293 3.04169 14.0293Z" fill="black"/>
<path d="M16.194 12.2756C15.4839 12.2756 14.9062 12.8533 14.9062 13.5634C14.9062 14.2735 15.4839 14.8512 16.194 14.8512C16.9041 14.8512 17.4818 14.2735 17.4818 13.5634C17.4818 12.8533 16.9041 12.2756 16.194 12.2756ZM16.194 14.0293C15.9372 14.0293 15.7282 13.8203 15.7282 13.5634C15.7282 13.3065 15.9372 13.0976 16.194 13.0976C16.4509 13.0976 16.6599 13.3065 16.6599 13.5634C16.6599 13.8203 16.4509 14.0293 16.194 14.0293Z" fill="black"/>
<path d="M27.9086 14.6203C27.4963 14.1104 27.2692 13.4237 27.2692 12.6866C27.2692 11.9495 27.4963 11.2628 27.9086 10.7529C28.0082 10.6297 28.0281 10.4603 27.9599 10.3174C27.8917 10.1745 27.7474 10.0835 27.589 10.0835H25.839C25.3904 10.0835 25.0229 10.4333 24.9926 10.8744L19.6737 9.8515V7.47956C19.6737 6.48449 18.9995 5.62093 18.0341 5.37956L15.7276 4.80296C15.7277 4.80033 15.728 4.79775 15.728 4.79512V1.28778C15.728 1.0309 15.937 0.821917 16.1939 0.821917H16.6323C16.8592 0.821917 17.0432 0.637918 17.0432 0.410959C17.0432 0.184 16.8592 0 16.6323 0H16.1939C15.4838 0 14.9061 0.577698 14.9061 1.28778V4.59759L14.3282 4.45315L13.2388 0.821917H13.5633C13.7903 0.821917 13.9743 0.637918 13.9743 0.410959C13.9743 0.184 13.7903 0 13.5633 0H12.6929C12.6912 0 12.6894 0 12.6876 0H2.60301C2.37605 0 2.19205 0.184 2.19205 0.410959C2.19205 0.637918 2.37605 0.821917 2.60301 0.821917H2.63046V8.30246C2.63046 9.01254 3.20816 9.59024 3.91824 9.59024H6.13775V10.522H3.04142C1.36438 10.522 0 11.8864 0 13.5634C0 15.2405 1.36438 16.6049 3.04142 16.6049H16.1939C17.7315 16.6049 19.0054 15.4577 19.2068 13.9744H24.9896V14.4403C24.9896 14.9086 25.3707 15.2896 25.839 15.2896H27.589C27.7474 15.2896 27.8917 15.1986 27.9599 15.0557C28.0282 14.9128 28.0082 14.7434 27.9086 14.6203ZM18.7082 11.8542C18.5813 11.6682 18.4341 11.4973 18.2702 11.3439H18.8244C19.2274 11.3439 19.5651 11.0615 19.6517 10.6843L24.9897 11.7108V11.8373H18.8244C18.784 11.8373 18.745 11.8433 18.7082 11.8542ZM13.0975 10.522V9.5903H13.417C13.7791 9.5903 14.143 9.62498 14.4985 9.69337L18.8077 10.5221H16.1939H13.0975V10.522ZM18.8518 7.47961V9.69353L14.6537 8.88619C14.5737 8.87079 14.4934 8.85737 14.4128 8.84498V5.32148L17.8348 6.17698C18.4336 6.32668 18.8518 6.86235 18.8518 7.47961ZM13.5908 4.85545V7.01468H11.3904C10.1222 7.01468 8.89967 6.65633 7.83654 5.97644V1.72625C7.83654 1.49929 7.65254 1.31529 7.42559 1.31529C7.19863 1.31529 7.01463 1.49929 7.01463 1.72625V5.40876L5.77879 4.54367C5.42016 4.2926 5.20608 3.88142 5.20608 3.44367V0.821972H12.3808L13.5908 4.85545ZM3.45238 8.30246V0.821972H4.38411V3.44367C4.38411 4.14931 4.72926 4.81227 5.30739 5.21704L7.13211 6.4943C8.38657 7.37244 9.85906 7.83665 11.3904 7.83665H13.5908V8.7709C13.5329 8.76937 13.4749 8.76838 13.417 8.76838H3.9183C3.66137 8.76832 3.45238 8.55934 3.45238 8.30246ZM6.95972 9.59024H12.2756V10.522H6.95972V9.59024ZM16.1939 15.783H3.04142C1.81759 15.783 0.821917 14.7873 0.821917 13.5634C0.821917 12.3396 1.81759 11.3439 3.04142 11.3439H16.1939C17.4177 11.3439 18.4134 12.3396 18.4134 13.5634C18.4134 14.7873 17.4177 15.783 16.1939 15.783ZM19.2068 13.1525C19.1839 12.9833 19.1478 12.8184 19.0981 12.6592H24.9897V13.1525H19.2068ZM26.8455 14.4677H25.8391C25.8239 14.4677 25.8116 14.4554 25.8116 14.4403V11.3676C25.8116 11.3667 25.8116 11.366 25.8116 11.3651V10.933C25.8116 10.9179 25.8239 10.9055 25.8391 10.9055H26.8455C26.5859 11.4385 26.4473 12.0497 26.4473 12.6866C26.4473 13.3236 26.5859 13.9347 26.8455 14.4677Z" fill="black"/>
<path d="M13.5632 13.1526H5.6717C5.44474 13.1526 5.26074 13.3366 5.26074 13.5635C5.26074 13.7905 5.44474 13.9745 5.6717 13.9745H13.5632C13.7902 13.9745 13.9742 13.7905 13.9742 13.5635C13.9742 13.3366 13.7902 13.1526 13.5632 13.1526Z" fill="black"/>
<path d="M15.3172 8.27491C15.5442 8.27491 15.7282 8.09091 15.7282 7.86395V6.98713C15.7282 6.76017 15.5442 6.57617 15.3172 6.57617C15.0902 6.57617 14.9062 6.76017 14.9062 6.98713V7.86395C14.9062 8.09091 15.0902 8.27491 15.3172 8.27491Z" fill="black"/>
<path d="M16.6326 8.27491C16.8596 8.27491 17.0436 8.09091 17.0436 7.86395V6.98713C17.0436 6.76017 16.8596 6.57617 16.6326 6.57617C16.4057 6.57617 16.2217 6.76017 16.2217 6.98713V7.86395C16.2217 8.09091 16.4056 8.27491 16.6326 8.27491Z" fill="black"/>
</svg>
