<svg width="30" height="30" viewBox="0 0 30 30" fill="none" xmlns="http://www.w3.org/2000/svg">
<path d="M5.60731 23.9531C5.49165 23.9531 5.37776 24.0001 5.29615 24.0823C5.21396 24.1639 5.16699 24.2778 5.16699 24.3934C5.16699 24.5091 5.21396 24.623 5.29615 24.7046C5.37776 24.7868 5.49165 24.8337 5.60731 24.8337C5.72296 24.8337 5.83686 24.7868 5.91846 24.7046C6.00065 24.623 6.04762 24.5091 6.04762 24.3934C6.04762 24.2778 6.00065 24.1639 5.91846 24.0823C5.83686 24.0001 5.72296 23.9531 5.60731 23.9531Z" fill="black"/>
<path d="M19.386 24.0823C19.3038 24.1639 19.2568 24.2778 19.2568 24.3934C19.2568 24.5091 19.3038 24.623 19.386 24.7046C19.4676 24.7868 19.5815 24.8337 19.6971 24.8337C19.8128 24.8337 19.9267 24.7868 20.0083 24.7046C20.0905 24.623 20.1375 24.5091 20.1375 24.3934C20.1375 24.2778 20.0905 24.1639 20.0083 24.0823C19.9267 24.0001 19.8128 23.9531 19.6971 23.9531C19.5815 23.9531 19.4676 24.0001 19.386 24.0823Z" fill="black"/>
<path d="M18.2875 23.9531H7.01551C6.77234 23.9531 6.5752 24.1503 6.5752 24.3934C6.5752 24.6366 6.77234 24.8337 7.01551 24.8337H18.2875C18.5307 24.8337 18.7278 24.6366 18.7278 24.3934C18.7278 24.1503 18.5307 23.9531 18.2875 23.9531Z" fill="black"/>
<path d="M29.5597 23.4833H29.0607V11.2133H29.5597C29.8029 11.2133 30 11.0161 30 10.773C30 10.5298 29.8029 10.3327 29.5597 10.3327H27.6517V4.19764C27.6517 3.95447 27.4545 3.75732 27.2113 3.75732C26.9682 3.75732 26.771 3.95447 26.771 4.19764V10.773V15.499H25.7575C25.7143 15.2681 25.5828 15.0599 25.3876 14.9221C25.1463 14.7519 24.836 14.7093 24.5579 14.8084L19.1196 16.7439C18.8557 15.7533 17.9512 15.0212 16.8787 15.0212H13.1213C12.6195 15.0212 12.2114 15.4294 12.2114 15.9312V16.4302H0.90998C0.4082 16.4302 0 16.8384 0 17.3402V22.5147C0 23.0164 0.4082 23.4246 0.90998 23.4246H4.03215C3.85808 23.7066 3.75734 24.0384 3.75734 24.3933C3.75734 25.413 4.58695 26.2426 5.60665 26.2426H19.6967C20.7164 26.2426 21.546 25.413 21.546 24.3933C21.546 23.3736 20.7164 22.544 19.6967 22.544H19.1977V19.5373L24.8924 17.5034V19.227C24.8924 19.9877 25.5113 20.6066 26.272 20.6066H26.771V23.9237V25.3327C26.771 25.5758 26.9682 25.773 27.2113 25.773C27.4545 25.773 27.6517 25.5758 27.6517 25.3327V24.364H29.5597C29.8029 24.364 30 24.1668 30 23.9237C30 23.6805 29.8029 23.4833 29.5597 23.4833ZM18.317 17.3402V20.9916L16.9532 20.6019C16.339 20.4265 15.91 19.8577 15.91 19.2189V15.9019H16.8787C17.6718 15.9019 18.317 16.5471 18.317 17.3402ZM0.880626 22.5147V18.7199H1.84932C2.09249 18.7199 2.28963 18.5227 2.28963 18.2796C2.28963 18.0364 2.09249 17.8392 1.84932 17.8392H0.880626V17.3402C0.880626 17.324 0.893777 17.3109 0.90998 17.3109H12.6517C12.9268 17.3109 13.1507 17.5347 13.1507 17.8099V17.8392H3.72798C3.48481 17.8392 3.28767 18.0364 3.28767 18.2796C3.28767 18.5227 3.48481 18.7199 3.72798 18.7199H13.1507V22.544H5.60665H0.90998C0.893777 22.544 0.880626 22.5309 0.880626 22.5147ZM20.6654 24.3933C20.6654 24.9275 20.2308 25.362 19.6967 25.362H5.60665C5.07252 25.362 4.63796 24.9275 4.63796 24.3933C4.63796 23.8592 5.07252 23.4246 5.60665 23.4246H13.591H19.6967C20.2308 23.4246 20.6654 23.8592 20.6654 24.3933ZM14.0313 22.544V17.8099C14.0313 17.2031 13.6374 16.6869 13.092 16.5027V15.9312C13.092 15.915 13.1051 15.9019 13.1213 15.9019H15.0294V19.2189C15.0294 20.2487 15.721 21.1657 16.7112 21.4486L18.317 21.9074V22.544H14.0313ZM24.8729 16.5753L19.1977 18.6022V17.6509L24.8532 15.638C24.8578 15.6364 24.8675 15.6329 24.88 15.6417C24.8924 15.6505 24.8924 15.6607 24.8924 15.6657V15.9393V16.5477C24.8924 16.56 24.8846 16.5711 24.8729 16.5753ZM26.272 19.726C25.9968 19.726 25.773 19.5022 25.773 19.227V16.5477V16.3796H26.771V19.726H26.272ZM27.6517 11.2133H28.18V23.4833H27.6517V11.2133Z" fill="black"/>
</svg>
