<svg width="28" height="28" viewBox="0 0 28 28" fill="none" xmlns="http://www.w3.org/2000/svg">
<g clip-path="url(#clip0_19:348)">
<path d="M8.1439 16.6703C7.92412 16.7269 7.79179 16.951 7.84834 17.1708C7.87639 17.2798 7.89058 17.3928 7.89058 17.5067C7.89058 18.2469 7.28834 18.8492 6.54812 18.8492C5.8079 18.8492 5.20571 18.2469 5.20571 17.5067C5.20571 16.7665 5.80795 16.1643 6.54817 16.1643C6.66215 16.1643 6.77524 16.1785 6.88423 16.2066C7.10384 16.2631 7.32806 16.1308 7.38467 15.911C7.44127 15.6912 7.30894 15.4672 7.08916 15.4106C6.91321 15.3652 6.73119 15.3423 6.54812 15.3423C5.35475 15.3423 4.38379 16.3133 4.38379 17.5067C4.38379 18.7001 5.35475 19.6711 6.54817 19.6711C7.7416 19.6711 8.71256 18.7001 8.71256 17.5067C8.71256 17.3237 8.6896 17.1417 8.64434 16.9658C8.58773 16.7461 8.36362 16.6137 8.1439 16.6703Z" fill="black"/>
<path d="M21.7328 16.6703C21.513 16.7269 21.3807 16.951 21.4373 17.1708C21.4653 17.2798 21.4795 17.3928 21.4795 17.5067C21.4795 18.2469 20.8773 18.8492 20.137 18.8492C19.3968 18.8492 18.7946 18.2469 18.7946 17.5067C18.7946 16.7665 19.3969 16.1643 20.1371 16.1643C20.2511 16.1643 20.3642 16.1785 20.4732 16.2066C20.6929 16.2631 20.917 16.1308 20.9736 15.911C21.0302 15.6912 20.8979 15.4672 20.6781 15.4106C20.5021 15.3652 20.3201 15.3423 20.137 15.3423C18.9436 15.3423 17.9727 16.3132 17.9727 17.5067C17.9727 18.7001 18.9436 19.6711 20.137 19.6711C21.3305 19.6711 22.3014 18.7001 22.3014 17.5067C22.3014 17.3237 22.2785 17.1417 22.2332 16.9658C22.1767 16.7461 21.9526 16.6137 21.7328 16.6703Z" fill="black"/>
<path d="M27.589 6.13696H21.4522C21.4521 6.13696 21.4521 6.13696 21.4519 6.13696H6.8359C6.25776 6.13696 5.7142 6.36206 5.30543 6.77088L0.120391 11.956C0.00285683 12.0735 -0.0323212 12.2503 0.0312952 12.4038C0.0949116 12.5574 0.24472 12.6575 0.410966 12.6575H3.50686V12.6849C3.50686 13.1854 3.79403 13.6198 4.21206 13.8327C2.99875 14.6069 2.19179 15.964 2.19179 17.5068C2.19179 19.9088 4.14598 21.863 6.54795 21.863C8.81129 21.863 10.6763 20.1277 10.8842 17.9178H15.8008C16.0086 20.1277 17.8736 21.863 20.137 21.863C21.926 21.863 23.466 20.7786 24.1358 19.2329H26.7123C27.1807 19.2329 27.5616 18.8519 27.5616 18.3835V12.6849C27.5616 12.2166 27.1807 11.8356 26.7123 11.8356H25.3699V10.0548C25.3699 9.34474 24.7922 8.7671 24.0822 8.7671H20.5753C20.3484 8.7671 20.1644 8.9511 20.1644 9.17806V11.8356H16.7455L21.6222 6.95888H27.589C27.816 6.95888 28 6.77488 28 6.54792C28 6.32096 27.816 6.13696 27.589 6.13696ZM6.54795 21.0411C4.59918 21.0411 3.01371 19.4557 3.01371 17.5068C3.01371 15.558 4.59918 13.9726 6.54795 13.9726C8.49672 13.9726 10.0822 15.5581 10.0822 17.5068C10.0822 19.4556 8.49677 21.0411 6.54795 21.0411ZM20.137 21.0411C18.1882 21.0411 16.6027 19.4556 16.6027 17.5068C16.6027 15.5581 18.1882 13.9726 20.137 13.9726C22.0858 13.9726 23.6712 15.5581 23.6712 17.5068C23.6712 19.4556 22.0858 21.0411 20.137 21.0411ZM26.7397 12.6849V18.3835C26.7397 18.3986 26.7274 18.4109 26.7123 18.4109H24.3982C24.4601 18.1191 24.4931 17.8168 24.4931 17.5068C24.4931 15.1049 22.539 13.1507 20.137 13.1507C17.8736 13.1507 16.0086 14.886 15.8008 17.0959H10.8842C10.6763 14.886 8.81129 13.1507 6.54795 13.1507H4.79453C4.5377 13.1507 4.32877 12.9417 4.32877 12.6849V12.6575H26.7123C26.7274 12.6575 26.7397 12.6698 26.7397 12.6849ZM20.9863 9.58902H24.0822C24.339 9.58902 24.5479 9.79795 24.5479 10.0548V10.0822H21.8904C21.6635 10.0822 21.4795 10.2662 21.4795 10.4931C21.4795 10.7201 21.6635 10.9041 21.8904 10.9041H24.5479V11.8356H20.9863V9.58902ZM15.5832 11.8356H3.91781H1.40313L5.88664 7.35209C6.14017 7.09855 6.47732 6.95888 6.8359 6.95888H20.4599L15.5832 11.8356Z" fill="black"/>
<path d="M14.5862 11.2222C14.6664 11.3024 14.7716 11.3425 14.8768 11.3425C14.9819 11.3425 15.0871 11.3024 15.1673 11.2222L18.2358 8.15367C18.3963 7.99318 18.3963 7.73301 18.2358 7.57252C18.0753 7.41203 17.8151 7.41203 17.6547 7.57252L14.5862 10.641C14.4257 10.8015 14.4257 11.0617 14.5862 11.2222Z" fill="black"/>
<path d="M12.3938 11.2222C12.474 11.3024 12.5792 11.3425 12.6844 11.3425C12.7895 11.3425 12.8947 11.3024 12.975 11.2222L16.0435 8.15367C16.2039 7.99318 16.2039 7.73301 16.0435 7.57252C15.883 7.41203 15.6227 7.41203 15.4623 7.57252L12.3938 10.641C12.2333 10.8015 12.2333 11.0617 12.3938 11.2222Z" fill="black"/>
<path d="M10.2024 11.2222C10.2826 11.3024 10.3878 11.3425 10.493 11.3425C10.5981 11.3425 10.7033 11.3024 10.7836 11.2222L13.852 8.15367C14.0125 7.99318 14.0125 7.73301 13.852 7.57252C13.6916 7.41203 13.4313 7.41203 13.2709 7.57252L10.2024 10.641C10.0419 10.8015 10.0419 11.0617 10.2024 11.2222Z" fill="black"/>
<path d="M8.01099 11.2222C8.09121 11.3024 8.19642 11.3425 8.30157 11.3425C8.40672 11.3425 8.51193 11.3024 8.59214 11.2222L11.6606 8.15367C11.8211 7.99318 11.8211 7.73301 11.6606 7.57252C11.5001 7.41203 11.2399 7.41203 11.0795 7.57252L8.01099 10.641C7.8505 10.8015 7.8505 11.0617 8.01099 11.2222Z" fill="black"/>
<path d="M5.81861 11.2222C5.89883 11.3024 6.00404 11.3425 6.10919 11.3425C6.21434 11.3425 6.31954 11.3024 6.39976 11.2222L9.46825 8.15367C9.62875 7.99318 9.62875 7.73301 9.46825 7.57252C9.30776 7.41203 9.04754 7.41203 8.88711 7.57252L5.81861 10.641C5.65812 10.8015 5.65812 11.0617 5.81861 11.2222Z" fill="black"/>
<path d="M3.62721 10.641C3.46671 10.8015 3.46671 11.0617 3.62721 11.2222C3.70742 11.3024 3.81263 11.3425 3.91778 11.3425C4.02293 11.3425 4.12814 11.3024 4.20836 11.2222L7.27685 8.15367C7.43734 7.99318 7.43734 7.73301 7.27685 7.57252C7.11636 7.41203 6.85614 7.41203 6.6957 7.57252L3.62721 10.641Z" fill="black"/>
<path d="M15.3151 14.9041H11.3699C11.143 14.9041 10.959 15.0881 10.959 15.315C10.959 15.542 11.143 15.726 11.3699 15.726H15.3151C15.5421 15.726 15.7261 15.542 15.7261 15.315C15.7261 15.0881 15.5421 14.9041 15.3151 14.9041Z" fill="black"/>
</g>
<defs>
<clipPath id="clip0_19:348">
<rect width="28" height="28" fill="white"/>
</clipPath>
</defs>
</svg>
