<svg width="38" height="28" viewBox="0 0 38 28" fill="none" xmlns="http://www.w3.org/2000/svg">
<path d="M11.4493 21.6569C11.1561 21.7324 10.9795 22.0314 11.0551 22.3247C11.0925 22.47 11.1115 22.6207 11.1115 22.7728C11.1115 23.7604 10.3079 24.5639 9.32035 24.5639C8.33274 24.5639 7.52922 23.7604 7.52922 22.7728C7.52922 21.7852 8.33274 20.9817 9.32035 20.9817C9.47234 20.9817 9.62316 21.0007 9.76857 21.0381C10.0619 21.1136 10.3607 20.937 10.4363 20.6437C10.5118 20.3505 10.3352 20.0515 10.0419 19.976C9.80731 19.9156 9.56452 19.885 9.32035 19.885C7.72807 19.885 6.43262 21.1805 6.43262 22.7727C6.43262 24.365 7.72807 25.6605 9.32035 25.6605C10.9126 25.6605 12.2081 24.365 12.2081 22.7727C12.2081 22.5285 12.1774 22.2856 12.117 22.051C12.0415 21.7579 11.7423 21.5814 11.4493 21.6569Z" fill="#E36931"/>
<path d="M24.3165 21.6569C24.0233 21.7324 23.8467 22.0314 23.9223 22.3247C23.9597 22.47 23.9787 22.6207 23.9787 22.7728C23.9787 23.7604 23.1751 24.5639 22.1875 24.5639C21.1999 24.5639 20.3964 23.7604 20.3964 22.7728C20.3964 21.7852 21.1999 20.9817 22.1875 20.9817C22.3395 20.9817 22.4903 21.0007 22.6358 21.0381C22.9291 21.1136 23.2279 20.937 23.3034 20.6437C23.379 20.3505 23.2024 20.0515 22.9091 19.976C22.6745 19.9156 22.4317 19.885 22.1875 19.885C20.5953 19.885 19.2998 21.1805 19.2998 22.7727C19.2998 24.365 20.5953 25.6605 22.1875 25.6605C23.7798 25.6605 25.0753 24.365 25.0753 22.7727C25.0753 22.5285 25.0446 22.2856 24.9842 22.051C24.9086 21.7579 24.6095 21.5814 24.3165 21.6569Z" fill="#E36931"/>
<path d="M37.2426 26.0324C37.2483 26.0251 37.2539 26.0178 37.2592 26.0102C37.264 26.0034 37.2684 25.9962 37.273 25.989C37.2779 25.9811 37.2829 25.9732 37.2875 25.9651C37.2918 25.9575 37.2956 25.9498 37.2994 25.942C37.3035 25.934 37.3075 25.926 37.3111 25.9178C37.3148 25.9094 37.318 25.9008 37.3213 25.8922C37.3243 25.8843 37.3274 25.8765 37.3299 25.8685C37.3329 25.8595 37.3354 25.8503 37.3379 25.8411C37.3401 25.8331 37.3423 25.8251 37.344 25.817C37.3461 25.808 37.3477 25.7987 37.3492 25.7895C37.3507 25.7809 37.3521 25.7723 37.3532 25.7636C37.3542 25.755 37.3549 25.7462 37.3556 25.7374C37.3563 25.7278 37.3568 25.7181 37.357 25.7085C37.3571 25.7047 37.3576 25.7009 37.3576 25.6971C37.3576 25.6925 37.357 25.6881 37.357 25.6836C37.3568 25.6737 37.3562 25.6639 37.3554 25.654C37.3548 25.6455 37.354 25.6371 37.3529 25.6287C37.3517 25.6194 37.3503 25.6102 37.3486 25.601C37.3471 25.5924 37.3455 25.5837 37.3435 25.5753C37.3415 25.5664 37.3392 25.5577 37.3368 25.549C37.3344 25.5405 37.3319 25.532 37.3291 25.5236C37.3263 25.5151 37.3231 25.5067 37.3198 25.4983C37.3166 25.4901 37.3133 25.4819 37.3097 25.4739C37.3061 25.4657 37.3021 25.4576 37.298 25.4495C37.294 25.4416 37.2899 25.4338 37.2855 25.426C37.2811 25.4184 37.2764 25.4108 37.2716 25.4032C37.2666 25.3954 37.2615 25.3878 37.2562 25.3803C37.2513 25.3733 37.2461 25.3665 37.2408 25.3598C37.2347 25.3521 37.2285 25.3445 37.222 25.3371C37.219 25.3336 37.2165 25.33 37.2134 25.3266L30.78 18.3083C30.5753 18.0851 30.2285 18.0701 30.0053 18.2746C29.7821 18.4793 29.7669 18.8261 29.9716 19.0494L30.4737 19.5971C30.4726 19.5993 30.4713 19.6012 30.4702 19.6034L29.899 20.7457L27.9216 14.6569C27.7539 14.1209 27.3341 13.7001 26.799 13.5314L22.6623 12.225C22.6617 12.2092 22.6608 12.1934 22.6588 12.1774L21.6394 4.02089H22.7728C23.0757 4.02089 23.3212 3.77539 23.3212 3.47258C23.3212 3.16978 23.0757 2.92428 22.7728 2.92428H14.5483V1.71802C14.5483 0.770694 13.7776 0 12.8303 0C11.883 0 11.1123 0.770694 11.1123 1.71802V2.95345C10.1037 3.11363 9.30375 3.92797 9.18766 4.97281L8.86598 7.86822L4.57467 6.51311C4.49689 6.48854 4.41779 6.48269 4.34183 6.4922C3.91072 6.0771 3.34596 5.84856 2.74583 5.84856H0.548303C0.245493 5.84856 0 6.09406 0 6.39687V9.321C0 9.32108 0 9.32122 0 9.32137V20.0606C0 21.2173 0.686987 22.2591 1.75018 22.7148L4.18874 23.7599C4.65166 26.1717 6.77637 28 9.32115 28C11.8142 28 13.9039 26.2451 14.4231 23.906H17.0859C17.6051 26.2451 19.6948 28 22.1879 28C24.7271 28 26.8483 26.1797 27.3175 23.7757L27.8768 25.4605C27.8999 25.5301 27.9368 25.5908 27.9817 25.6432C27.9933 25.665 28.0058 25.6867 28.0189 25.708C28.2269 26.0445 28.5873 26.2454 28.9829 26.2454H36.8094H36.8095H36.8096C36.8272 26.2454 36.8448 26.2445 36.8623 26.2427C36.8689 26.2421 36.8753 26.241 36.8818 26.2401C36.8926 26.2386 36.9034 26.2372 36.9142 26.2351C36.9218 26.2337 36.9291 26.2318 36.9366 26.2299C36.946 26.2277 36.9555 26.2254 36.9649 26.2226C36.9725 26.2204 36.98 26.2178 36.9874 26.2152C36.9964 26.2122 37.0053 26.209 37.0142 26.2054C37.0216 26.2025 37.0287 26.1993 37.0359 26.196C37.0445 26.1921 37.0531 26.188 37.0616 26.1837C37.0687 26.18 37.0757 26.1761 37.0825 26.1721C37.0906 26.1675 37.0985 26.1627 37.1064 26.1576C37.1135 26.153 37.1203 26.1483 37.127 26.1435C37.1343 26.1383 37.1415 26.1329 37.1486 26.1274C37.1555 26.122 37.1622 26.1163 37.1689 26.1105C37.1725 26.1074 37.1764 26.1046 37.1799 26.1013C37.1828 26.0987 37.1852 26.0959 37.188 26.0932C37.195 26.0865 37.2018 26.0796 37.2084 26.0725C37.2144 26.0661 37.2203 26.0597 37.226 26.0532C37.2317 26.0464 37.2372 26.0395 37.2426 26.0324ZM26.8771 14.9901L29.2003 22.1438L28.4376 23.6691L25.868 15.9286C25.8126 15.7616 25.6805 15.6315 25.5127 15.5785L7.3969 9.85768C7.2838 9.54047 7.10074 9.24965 6.85554 9.00445L5.94784 8.09675L26.4692 14.5772C26.6627 14.6382 26.8146 14.7905 26.8771 14.9901ZM12.3806 12.7482L12.402 12.5882L15.1365 13.4517H12.9965C12.8148 13.4517 12.6487 13.3764 12.5289 13.2396C12.4092 13.1028 12.3566 12.9283 12.3806 12.7482ZM7.53003 11.0497L8.4791 11.3494L8.30694 12.899C8.27192 13.2142 8.00639 13.4518 7.68933 13.4518H7.53003V11.0497ZM12.863 9.13049L13.2384 6.31469C13.2794 6.00728 13.5442 5.77546 13.8544 5.77546H20.7536L21.5145 11.8626L12.863 9.13049ZM12.8303 1.09661C13.1729 1.09661 13.4517 1.37536 13.4517 1.71802V2.92428H12.2089V1.71802C12.2089 1.37536 12.4876 1.09661 12.8303 1.09661ZM10.2775 5.09395C10.3455 4.48219 10.8609 4.02089 11.4764 4.02089H20.5342L20.6165 4.67885H13.8544C12.9969 4.67885 12.2647 5.31985 12.1514 6.1698L11.8014 8.79529L9.93189 8.20495L10.2775 5.09395ZM2.74583 6.94517C3.06801 6.94517 3.37097 7.07062 3.59877 7.2985L6.08009 9.77982C6.3079 10.0076 6.43342 10.3106 6.43342 10.6328V18.4186C5.08818 19.3137 4.17938 20.8145 4.10021 22.5288L3.43325 22.243C3.43508 22.2249 3.43603 22.2066 3.43603 22.188V12.6296C3.43603 11.8583 3.13563 11.1331 2.59026 10.5877L1.09661 9.09408V6.94517H2.74583ZM1.09661 20.0605V10.6448L1.81481 11.363C2.15315 11.7014 2.33943 12.1511 2.33943 12.6296V21.7742L2.18217 21.7068C1.52275 21.4242 1.09661 20.778 1.09661 20.0605ZM9.32115 26.9034C7.04357 26.9034 5.1906 25.0504 5.1906 22.7728C5.1906 20.4953 7.04357 18.6423 9.32115 18.6423C11.5987 18.6423 13.4517 20.4953 13.4517 22.7728C13.4517 25.0504 11.5987 26.9034 9.32115 26.9034ZM22.188 26.9034C19.9104 26.9034 18.0574 25.0504 18.0574 22.7728C18.0574 20.4953 19.9104 18.6423 22.188 18.6423C24.4656 18.6423 26.3185 20.4953 26.3185 22.7728C26.3185 25.0504 24.4656 26.9034 22.188 26.9034ZM22.188 17.5457C19.3057 17.5457 16.9608 19.8906 16.9608 22.7728C16.9608 22.7851 16.9616 22.7972 16.9618 22.8094H14.5474C14.5475 22.7972 14.5484 22.7851 14.5484 22.7728C14.5484 19.8906 12.2035 17.5457 9.32122 17.5457C8.69228 17.5457 8.08908 17.6574 7.5301 17.862V16.8877H18.6789C18.9817 16.8877 19.2272 16.6422 19.2272 16.3394C19.2272 16.0366 18.9817 15.7911 18.6789 15.7911H7.53003V14.5483H7.68933C8.56595 14.5483 9.30002 13.8913 9.39682 13.02L9.545 11.6859L11.3403 12.2529L11.2936 12.6032C11.2281 13.0941 11.3777 13.5894 11.7039 13.962C12.0302 14.3346 12.5013 14.5483 12.9966 14.5483H18.6091L22.5447 15.7911H21.0183C20.7155 15.7911 20.47 16.0366 20.47 16.3394C20.47 16.6422 20.7155 16.8877 21.0183 16.8877H25.031L25.7007 18.9051C24.772 18.0609 23.539 17.5457 22.188 17.5457ZM28.9518 25.1315C28.9411 25.1142 28.9468 25.1027 28.9502 25.0959L31.2669 20.4622L35.563 25.1488H28.9829C28.9753 25.1488 28.9625 25.1488 28.9518 25.1315Z" fill="#E36931"/>
</svg>
