<svg width="28" height="28" viewBox="0 0 28 28" xmlns="http://www.w3.org/2000/svg" fill="red" stroke="orange" stroke-width="2">
<path d="M1.78125 24.6878C1.78125 25.4091 2.36808 25.9959 3.0894 25.9959C3.81072 25.9959 4.39755 25.4091 4.39755 24.6878C4.39755 24.2225 4.14722 23.7885 3.74431 23.5552C3.54603 23.4404 3.31952 23.3796 3.0894 23.3796C2.36808 23.3796 1.78125 23.9665 1.78125 24.6878ZM3.56256 24.6878C3.56256 24.9487 3.35031 25.161 3.0894 25.161C2.82849 25.161 2.61624 24.9487 2.61624 24.6878C2.61624 24.4269 2.82849 24.2146 3.0894 24.2146C3.17279 24.2146 3.25451 24.2365 3.32587 24.2778C3.47188 24.3623 3.56256 24.5195 3.56256 24.6878Z" fill="black"/>
<path d="M6.6519 25.9959C7.37322 25.9959 7.96005 25.4091 7.96005 24.6878C7.96005 24.2225 7.70972 23.7885 7.30681 23.5552C7.10847 23.4404 6.88202 23.3796 6.6519 23.3796C5.93058 23.3796 5.34375 23.9665 5.34375 24.6878C5.34375 25.4091 5.93058 25.9959 6.6519 25.9959ZM6.6519 24.2146C6.73529 24.2146 6.81701 24.2365 6.88837 24.2778C7.03438 24.3624 7.12506 24.5195 7.12506 24.6878C7.12506 24.9487 6.91281 25.161 6.6519 25.161C6.39099 25.161 6.17874 24.9487 6.17874 24.6878C6.17874 24.4269 6.39099 24.2146 6.6519 24.2146Z" fill="black"/>
<path d="M10.2144 25.9959C10.9357 25.9959 11.5226 25.4091 11.5226 24.6878C11.5226 24.2225 11.2722 23.7885 10.8693 23.5552C10.671 23.4404 10.4445 23.3796 10.2144 23.3796C9.49308 23.3796 8.90625 23.9665 8.90625 24.6878C8.90625 25.4091 9.49308 25.9959 10.2144 25.9959ZM10.2144 24.2146C10.2978 24.2146 10.3795 24.2365 10.4509 24.2778C10.5969 24.3624 10.6876 24.5195 10.6876 24.6878C10.6876 24.9487 10.4753 25.161 10.2144 25.161C9.95349 25.161 9.74124 24.9487 9.74124 24.6878C9.74124 24.4269 9.95349 24.2146 10.2144 24.2146Z" fill="black"/>
<path d="M13.7769 25.9959C14.4982 25.9959 15.0851 25.4091 15.0851 24.6878C15.0851 24.2225 14.8347 23.7885 14.4318 23.5552C14.2335 23.4404 14.007 23.3796 13.7769 23.3796C13.0556 23.3796 12.4688 23.9665 12.4688 24.6878C12.4688 25.4091 13.0556 25.9959 13.7769 25.9959ZM13.7769 24.2146C13.8603 24.2146 13.942 24.2365 14.0134 24.2778C14.1594 24.3624 14.2501 24.5195 14.2501 24.6878C14.2501 24.9487 14.0378 25.161 13.7769 25.161C13.516 25.161 13.3037 24.9487 13.3037 24.6878C13.3037 24.4269 13.516 24.2146 13.7769 24.2146Z" fill="black"/>
<path d="M3.53468 17.5347H3.98001C4.21058 17.5347 4.39751 17.3478 4.39751 17.1172C4.39751 16.8866 4.21058 16.6997 3.98001 16.6997H3.53468C3.30411 16.6997 3.11719 16.8866 3.11719 17.1172C3.11719 17.3478 3.30411 17.5347 3.53468 17.5347Z" fill="black"/>
<path d="M3.53468 18.8709H3.98001C4.21058 18.8709 4.39751 18.684 4.39751 18.4534C4.39751 18.2228 4.21058 18.0359 3.98001 18.0359H3.53468C3.30411 18.0359 3.11719 18.2228 3.11719 18.4534C3.11719 18.684 3.30411 18.8709 3.53468 18.8709Z" fill="black"/>
<path d="M27.8229 14.68L20.7236 1.26528C20.4504 0.65173 19.8351 0.222656 19.1213 0.222656C18.5234 0.222656 17.9947 0.523642 17.6781 0.981829C17.6774 0.982776 17.6766 0.983555 17.6758 0.984501L10.8826 10.0386C10.7887 10.0264 10.6936 10.0199 10.5974 10.0199H7.54274C6.33034 10.0199 5.34394 11.0063 5.34394 12.2187V14.9185H2.64414C1.92282 14.9185 1.33598 15.5053 1.33598 16.2266V19.3439C1.33598 20.0653 1.92282 20.6521 2.64414 20.6521H5.76143H6.23459V21.5984H3.08946C1.38592 21.5984 0 22.9843 0 24.6879C0 26.3914 1.38592 27.7773 3.08946 27.7773H13.7773C15.4809 27.7773 16.8668 26.3914 16.8668 24.6879C16.8668 22.9843 15.4809 21.5984 13.7773 21.5984H10.6322V20.6521H14.2227C14.4532 20.6521 14.6402 20.4652 14.6402 20.2346V18.8708L15.1134 18.8708C15.119 18.8708 15.1245 18.8702 15.13 18.8699C15.1387 18.8696 15.1474 18.8695 15.156 18.8686C15.1604 18.8682 15.1646 18.8672 15.1689 18.8666C15.1784 18.8654 15.1881 18.8642 15.1974 18.8623C15.2049 18.8607 15.2123 18.8585 15.2197 18.8566C15.2256 18.855 15.2316 18.8538 15.2374 18.852C15.242 18.8506 15.2463 18.8487 15.2508 18.8471C15.2592 18.8442 15.2676 18.8414 15.2758 18.838C15.2767 18.8376 15.2776 18.837 15.2786 18.8366C15.3025 18.8263 15.3254 18.8139 15.3467 18.7995C15.352 18.7959 15.357 18.7918 15.3622 18.7879C15.3678 18.7838 15.3735 18.7799 15.3788 18.7755C15.3845 18.7708 15.3898 18.7657 15.3952 18.7607C15.3996 18.7567 15.4042 18.7528 15.4085 18.7486C15.4124 18.7447 15.4159 18.7405 15.4196 18.7364C15.4249 18.7306 15.4304 18.725 15.4355 18.7189C15.4373 18.7167 15.4389 18.7142 15.4406 18.712C15.4471 18.7037 15.4536 18.6955 15.4595 18.6867C15.4621 18.6828 15.4643 18.6786 15.4669 18.6745C15.4715 18.6672 15.4762 18.66 15.4804 18.6523C15.5038 18.6093 15.5193 18.5615 15.5264 18.5109C15.529 18.4921 15.5308 18.4729 15.5308 18.4533V16.8599C15.5308 16.0715 15.2997 15.3081 14.8623 14.6521L14.2007 13.6597L18.7873 5.95926L25.5616 15.9934C25.7198 16.2644 25.9725 16.4735 26.2744 16.5754V17.2648L26.1526 16.9617C26.1113 16.8589 26.0309 16.7768 25.9291 16.7334C25.8272 16.6898 25.7122 16.6887 25.6095 16.7299L19.904 19.022L18.921 18.2116C18.7431 18.0649 18.48 18.0902 18.3333 18.2681C18.1866 18.446 18.212 18.7092 18.3899 18.8559L21.4714 21.3963C22.0344 21.8605 22.7312 22.1022 23.4366 22.1022C23.8248 22.1022 24.2158 22.029 24.5884 21.8793L26.0092 21.3085C26.6217 21.0625 27.0193 20.5074 27.0954 19.8945C27.1042 19.8608 27.1093 19.8257 27.1093 19.7893V16.5754C27.6265 16.4008 28 15.9113 28 15.336C28 15.097 27.9353 14.8729 27.8229 14.68ZM5.34394 19.8171H2.64414C2.38323 19.8171 2.17097 19.6048 2.17097 19.3439V16.2266C2.17097 15.9657 2.38323 15.7535 2.64414 15.7535H5.34394V19.8171ZM25.6979 20.5337L24.2771 21.1045C23.5111 21.4123 22.6396 21.2772 22.0026 20.752L20.6379 19.6269L25.5334 17.6603L26.2078 19.339C26.3966 19.809 26.1678 20.345 25.6979 20.5337ZM19.1213 1.05765C19.4649 1.05765 19.7646 1.24763 19.9221 1.52775C19.9283 1.54428 19.9352 1.56064 19.9437 1.57668L19.9706 1.6275C20.0149 1.7351 20.0398 1.85272 20.0398 1.97614C20.0398 2.1497 19.9905 2.31158 19.9065 2.45019C19.9038 2.45431 19.9009 2.45815 19.8984 2.46238L19.8809 2.49171C19.7155 2.7347 19.4367 2.89462 19.1213 2.89462C18.6148 2.89462 18.2028 2.48258 18.2028 1.97614C18.2028 1.46969 18.6148 1.05765 19.1213 1.05765ZM13.7773 22.4334C15.0205 22.4334 16.0318 23.4447 16.0318 24.6879C16.0318 25.931 15.0205 26.9423 13.7773 26.9423H3.08946C1.84633 26.9423 0.83499 25.931 0.83499 24.6879C0.83499 23.4447 1.84633 22.4334 3.08946 22.4334H13.7773ZM7.06958 21.5984V20.6521H9.79722V21.5984H7.06958ZM13.8052 19.8171H6.17893V15.3381C6.17893 15.3374 6.17904 15.3368 6.17904 15.336C6.17904 15.3352 6.17893 15.3345 6.17893 15.3338V12.2187C6.17893 11.6123 6.57688 11.0972 7.12525 10.9205V16.9173C7.12525 17.4141 7.41855 17.8654 7.87245 18.0672C9.07217 18.6004 10.3461 18.8708 11.659 18.8708H13.8052V19.8171ZM14.6958 16.8599V18.0358H11.659C11.1613 18.0358 10.6699 17.9925 10.1869 17.9076V12.2187C10.1869 11.9881 9.99995 11.8012 9.76938 11.8012C9.53881 11.8012 9.35189 11.9881 9.35189 12.2187V17.7165C8.96484 17.6069 8.5842 17.4698 8.21163 17.3042C8.05893 17.2363 7.96024 17.0844 7.96024 16.9173V10.8549H10.5974C11.0544 10.8549 11.4787 11.0819 11.7322 11.4622L14.1676 15.1153C14.5132 15.6336 14.6958 16.2369 14.6958 16.8599ZM13.6874 12.8898L12.4269 10.999C12.2396 10.718 11.994 10.4896 11.7124 10.3239L17.4914 2.62158C17.7491 3.26987 18.3823 3.72961 19.1213 3.72961C19.1288 3.72961 19.1364 3.72911 19.1439 3.72906L13.6874 12.8898ZM25.6199 14.5875L19.2596 5.16647L20.5946 2.92513C20.6062 2.90721 20.6176 2.88917 20.6286 2.8708L26.538 14.0372C26.1588 14.0818 25.8289 14.2892 25.6199 14.5875ZM26.6918 15.8091C26.4309 15.8091 26.2187 15.5969 26.2187 15.336C26.2187 15.0751 26.4309 14.8628 26.6918 14.8628C26.9528 14.8628 27.165 15.0751 27.165 15.336C27.165 15.5969 26.9528 15.8091 26.6918 15.8091Z" fill="black"/>
</svg>
