<svg width="18" height="18" viewBox="0 0 18 18" fill="none" xmlns="http://www.w3.org/2000/svg">
<path d="M14.925 2.31785C14.8328 1.92159 14.6609 1.54823 14.4199 1.22047C14.1789 0.892706 13.8737 0.617397 13.5229 0.411282C13.1721 0.205168 12.7831 0.0725555 12.3795 0.0215095C11.9758 -0.0295364 11.566 0.0020509 11.175 0.114351L9.882 0.484101C9.55446 0.578241 9.25277 0.746015 9 0.974601C8.74723 0.746015 8.44554 0.578241 8.118 0.484101L6.825 0.114351C6.4342 0.0026362 6.02478 -0.0285008 5.62158 0.0228295C5.21838 0.0741598 4.82982 0.206887 4.47947 0.412954C4.12913 0.619022 3.82432 0.894132 3.58353 1.22159C3.34274 1.54904 3.17101 1.92201 3.07875 2.31785C2.2161 2.4748 1.43572 2.92907 0.873249 3.6017C0.310783 4.27433 0.00179699 5.12279 0 5.9996L0 11.2496C0.00119089 12.2438 0.396661 13.1969 1.09966 13.8999C1.80267 14.6029 2.7558 14.9984 3.75 14.9996H8.25V16.4996H6C5.80109 16.4996 5.61032 16.5786 5.46967 16.7193C5.32902 16.8599 5.25 17.0507 5.25 17.2496C5.25 17.4485 5.32902 17.6393 5.46967 17.7799C5.61032 17.9206 5.80109 17.9996 6 17.9996H12C12.1989 17.9996 12.3897 17.9206 12.5303 17.7799C12.671 17.6393 12.75 17.4485 12.75 17.2496C12.75 17.0507 12.671 16.8599 12.5303 16.7193C12.3897 16.5786 12.1989 16.4996 12 16.4996H9.75V14.9996H14.25C15.2442 14.9984 16.1973 14.6029 16.9003 13.8999C17.6033 13.1969 17.9988 12.2438 18 11.2496V5.9996C17.9984 5.12333 17.6899 4.27529 17.1282 3.60274C16.5665 2.93018 15.787 2.47558 14.925 2.31785ZM9.75 2.64785C9.75007 2.48496 9.80317 2.32652 9.90127 2.19649C9.99937 2.06646 10.1371 1.97189 10.2938 1.9271L11.5875 1.55735C11.8108 1.49349 12.0458 1.48234 12.2741 1.52477C12.5024 1.56721 12.7177 1.66207 12.9032 1.80189C13.0886 1.94171 13.239 2.12266 13.3425 2.3305C13.4461 2.53834 13.5 2.76739 13.5 2.9996V5.9531C13.499 6.27857 13.3924 6.59492 13.1963 6.85469C13.0002 7.11446 12.7252 7.30364 12.4125 7.39385L9.75 8.15435V2.64785ZM5.1 1.7996C5.28505 1.66029 5.49994 1.56589 5.72771 1.52385C5.95549 1.48181 6.18992 1.49328 6.4125 1.55735L7.70625 1.9271C7.86286 1.97189 8.00063 2.06646 8.09873 2.19649C8.19683 2.32652 8.24993 2.48496 8.25 2.64785V8.15435L5.5875 7.39385C5.27478 7.30364 4.99975 7.11446 4.80367 6.85469C4.60759 6.59492 4.50104 6.27857 4.5 5.9531V2.9996C4.49924 2.7666 4.55312 2.53667 4.65732 2.32826C4.76152 2.11986 4.91314 1.93879 5.1 1.7996ZM16.5 11.2496C16.5 11.8463 16.2629 12.4186 15.841 12.8406C15.419 13.2625 14.8467 13.4996 14.25 13.4996H3.75C3.15326 13.4996 2.58097 13.2625 2.15901 12.8406C1.73705 12.4186 1.5 11.8463 1.5 11.2496V5.9996C1.50192 5.53591 1.64706 5.08413 1.91557 4.70608C2.18407 4.32802 2.56282 4.04216 3 3.8876V5.9531C3.00184 6.60436 3.21481 7.23745 3.60697 7.7574C3.99913 8.27735 4.54933 8.65611 5.175 8.83685L7.76325 9.5771C8.57214 9.80768 9.42936 9.80768 10.2382 9.5771L12.8265 8.83685C13.4519 8.65584 14.0018 8.27696 14.3936 7.75704C14.7855 7.23711 14.9983 6.60416 15 5.9531V3.8876C15.4372 4.04216 15.8159 4.32802 16.0844 4.70608C16.3529 5.08413 16.4981 5.53591 16.5 5.9996V11.2496Z" fill="white"/>
</svg>
