<svg width="28" height="28" viewBox="0 0 28 28" fill="none" xmlns="http://www.w3.org/2000/svg">
<path d="M3.91829 21.2603C3.69133 21.2603 3.50733 21.4443 3.50733 21.6712C3.50733 21.928 3.2984 22.137 3.04158 22.137C2.78476 22.137 2.57582 21.928 2.57582 21.6712C2.57582 21.4144 2.78476 21.2055 3.04158 21.2055C3.26854 21.2055 3.45254 21.0215 3.45254 20.7945C3.45254 20.5675 3.26854 20.3835 3.04158 20.3835C2.33155 20.3835 1.75391 20.9612 1.75391 21.6712C1.75391 22.3812 2.33155 22.9589 3.04158 22.9589C3.75161 22.9589 4.32925 22.3812 4.32925 21.6712C4.32925 21.4443 4.14525 21.2603 3.91829 21.2603Z" fill="black"/>
<path d="M20.5755 21.2603C20.3486 21.2603 20.1646 21.4443 20.1646 21.6712C20.1646 21.928 19.9556 22.137 19.6988 22.137C19.442 22.137 19.2331 21.928 19.2331 21.6712C19.2331 21.4144 19.442 21.2055 19.6988 21.2055C19.9258 21.2055 20.1098 21.0215 20.1098 20.7945C20.1098 20.5675 19.9258 20.3835 19.6988 20.3835C18.9888 20.3835 18.4111 20.9612 18.4111 21.6712C18.4111 22.3812 18.9888 22.9589 19.6988 22.9589C20.4088 22.9589 20.9865 22.3812 20.9865 21.6712C20.9865 21.4443 20.8025 21.2603 20.5755 21.2603Z" fill="black"/>
<path d="M8.30158 21.2603C8.19364 21.2603 8.08734 21.3041 8.01117 21.3808C7.93446 21.457 7.89062 21.5633 7.89062 21.6712C7.89062 21.7792 7.93446 21.8855 8.01117 21.9616C8.08734 22.0383 8.19364 22.0822 8.30158 22.0822C8.40953 22.0822 8.51583 22.0383 8.592 21.9616C8.66871 21.8855 8.71254 21.7792 8.71254 21.6712C8.71254 21.5633 8.66871 21.457 8.592 21.3808C8.51583 21.3041 8.40953 21.2603 8.30158 21.2603Z" fill="black"/>
<path d="M7.42463 7.67114C7.31669 7.67114 7.21038 7.71498 7.13422 7.79169C7.05751 7.86786 7.01367 7.97416 7.01367 8.0821C7.01367 8.19005 7.05751 8.29635 7.13422 8.37251C7.21038 8.44923 7.31669 8.49306 7.42463 8.49306C7.53258 8.49306 7.63888 8.44923 7.71504 8.37251C7.79175 8.29635 7.83559 8.19005 7.83559 8.0821C7.83559 7.97416 7.79175 7.86786 7.71504 7.79169C7.63888 7.71498 7.53312 7.67114 7.42463 7.67114Z" fill="black"/>
<path d="M14.4383 13.8081C14.3304 13.8081 14.2241 13.8519 14.1479 13.9287C14.0712 14.0048 14.0273 14.1111 14.0273 14.2191C14.0273 14.3276 14.0712 14.4333 14.1479 14.5095C14.2241 14.5862 14.3304 14.63 14.4383 14.63C14.5462 14.63 14.6525 14.5862 14.7287 14.5095C14.8054 14.4333 14.8493 14.3276 14.8493 14.2191C14.8493 14.1111 14.8054 14.0048 14.7287 13.9287C14.6525 13.8519 14.5462 13.8081 14.4383 13.8081Z" fill="black"/>
<path d="M25.9838 6.6191C26.06 6.69581 26.1663 6.73964 26.2742 6.73964C26.3822 6.73964 26.4885 6.69581 26.5647 6.6191C26.6414 6.54293 26.6852 6.43663 26.6852 6.32868C26.6852 6.22074 26.6414 6.11444 26.5647 6.03827C26.4885 5.96156 26.3822 5.91772 26.2742 5.91772C26.1663 5.91772 26.06 5.96156 25.9838 6.03827C25.9071 6.11444 25.8633 6.22074 25.8633 6.32868C25.8633 6.43663 25.9071 6.54293 25.9838 6.6191Z" fill="black"/>
<path d="M26.6849 9.47401V8.00486C27.4388 7.81993 28 7.13878 28 6.32864C28 5.37691 27.2257 4.60261 26.274 4.60261H23.0715C22.9265 4.34152 22.6481 4.16426 22.3288 4.16426H2.57534V4.13686C2.57534 3.66858 2.19436 3.2876 1.72603 3.2876H0.849315C0.380986 3.2876 0 3.66858 0 4.13691V10.2739C0 10.7422 0.380986 11.1232 0.849315 11.1232H1.72603C2.19436 11.1232 2.57534 10.7422 2.57534 10.2739V8.49308H5.74767C5.81775 8.78163 5.96181 9.04804 6.17255 9.27012C6.49704 9.61204 6.95342 9.80815 7.42471 9.80815H8.97266L11.3973 13.041V15.5342C11.3973 15.7611 11.5813 15.9451 11.8082 15.9451H12.7137C12.7131 15.9542 12.7123 15.9633 12.7123 15.9725V17.726C12.7123 17.9828 12.5034 18.1917 12.2466 18.1917H10.4658V17.2933C10.4658 17.2921 10.4658 17.2909 10.4658 17.2897V17.2876C10.4658 17.285 10.4654 17.2824 10.4654 17.2798C10.4652 17.2692 10.4648 17.2586 10.4638 17.2479C10.4631 17.241 10.4619 17.2344 10.4609 17.2277C10.4599 17.2211 10.4592 17.2147 10.458 17.2081C10.4559 17.1975 10.4532 17.187 10.4502 17.1766C10.4496 17.1743 10.4492 17.1719 10.4485 17.1695L10.4479 17.1676C10.4476 17.1664 10.4472 17.1651 10.4468 17.1639L9.32088 13.4107C9.15616 12.8618 8.66049 12.4931 8.08745 12.4931H2.16438C1.45436 12.4931 0.876712 13.0707 0.876712 13.7807V16.9443C0.367671 17.1162 0 17.598 0 18.1643V21.6712C0 23.348 1.36422 24.7123 3.0411 24.7123C4.57852 24.7123 5.85233 23.5652 6.05364 22.0821H6.57534V22.1095C6.57534 22.8195 7.15299 23.3972 7.86301 23.3972H10.4932C11.2032 23.3972 11.7808 22.8195 11.7808 22.1095V22.0821H16.6861C16.8875 23.5652 18.1612 24.7123 19.6986 24.7123C21.2375 24.7123 22.5122 23.5631 22.7117 22.078C22.7299 22.0804 22.7483 22.0821 22.7671 22.0821H24.5205C24.9889 22.0821 25.3699 21.7011 25.3699 21.2328V15.5342C25.3699 15.5308 25.3694 15.5277 25.3694 15.5244C25.3692 15.5158 25.3688 15.5072 25.3681 15.4985C25.3676 15.4926 25.3668 15.4867 25.366 15.4809C25.3651 15.4737 25.3641 15.4665 25.3627 15.4593C25.3614 15.4519 25.3597 15.4447 25.358 15.4376C25.3566 15.432 25.3553 15.4264 25.3536 15.4208C25.3512 15.4123 25.3484 15.404 25.3454 15.3958C25.3443 15.3928 25.3436 15.3897 25.3425 15.3867L23.583 10.812C23.2638 9.98217 22.452 9.42464 21.5629 9.42464H18.3836C17.6735 9.42464 17.0959 10.0023 17.0959 10.7123V13.8081H16.1146C15.9941 13.3168 15.6627 12.9077 15.2222 12.6821C15.2093 12.662 15.1947 12.6426 15.1779 12.6244L11.3416 8.49308H22.3288C22.6481 8.49308 22.9265 8.31582 23.0715 8.05472H25.863V9.83554C25.863 10.0625 26.047 10.2465 26.274 10.2465C26.7725 10.2465 27.1781 10.6521 27.1781 11.1506C27.1781 11.6491 26.7725 12.0547 26.274 12.0547C25.7755 12.0547 25.3699 11.6491 25.3699 11.1506C25.3699 10.9237 25.1859 10.7397 24.9589 10.7397C24.7319 10.7397 24.5479 10.9237 24.5479 11.1506C24.5479 12.1023 25.3222 12.8766 26.274 12.8766C27.2257 12.8766 28 12.1023 28 11.1506C28 10.3404 27.4389 9.65883 26.6849 9.47401ZM27.1781 6.32869C27.1781 6.82721 26.7725 7.2328 26.274 7.2328H23.1781V5.42458H26.274C26.7725 5.42458 27.1781 5.83017 27.1781 6.32869ZM1.75342 10.2739C1.75342 10.288 1.74011 10.3013 1.72603 10.3013H0.849315C0.835233 10.3013 0.821918 10.288 0.821918 10.2739V4.13691C0.821918 4.12283 0.835233 4.10952 0.849315 4.10952H1.72603C1.74011 4.10952 1.75342 4.12283 1.75342 4.13691V4.57527V8.08212V10.2739ZM2.57534 4.98623H22.3288C22.3439 4.98623 22.3562 4.99856 22.3562 5.01363V5.91774H11.9146C11.4535 5.91774 11.0201 6.09724 10.6941 6.42332L10.0333 7.08415L9.86948 6.90765C9.544 6.55719 9.08296 6.35615 8.60466 6.35615H7.49912C6.65353 6.35615 5.94044 6.91275 5.74932 7.67122H2.57534V4.98623ZM9.17808 8.98623H7.42466C7.17419 8.98623 6.94121 8.88612 6.76871 8.70431C6.59633 8.52272 6.50866 8.2842 6.52186 8.03286C6.54658 7.56146 6.98493 7.17795 7.49907 7.17795H8.6046C8.85518 7.17795 9.09666 7.28327 9.26712 7.46683L13.9343 12.4931H12.0137L9.50685 9.15061C9.4292 9.04711 9.30745 8.98623 9.17808 8.98623ZM0.821918 18.1643C0.821918 17.9075 1.03085 17.6986 1.28767 17.6986H2.16438C2.39134 17.6986 2.57534 17.5146 2.57534 17.2876C2.57534 17.0606 2.39134 16.8766 2.16438 16.8766H1.69863V13.7807C1.69863 13.5239 1.90756 13.315 2.16438 13.315H8.08745C8.29474 13.315 8.47403 13.4484 8.53359 13.6469L9.50247 16.8766H3.91797C3.69101 16.8766 3.50701 17.0606 3.50701 17.2876C3.50701 17.5146 3.69101 17.6986 3.91797 17.6986H9.64384V19.9451H7.86301H5.67123C5.63085 19.9451 5.59189 19.9512 5.55501 19.9621C5.00712 19.1587 4.08477 18.6301 3.0411 18.6301C2.16636 18.6301 1.37726 19.0018 0.821918 19.595V18.1643ZM3.0411 23.8903C1.81742 23.8903 0.821918 22.8948 0.821918 21.6712C0.821918 20.4475 1.81742 19.452 3.0411 19.452C4.26477 19.452 5.26027 20.4475 5.26027 21.6712C5.26027 22.8948 4.26477 23.8903 3.0411 23.8903ZM6.05364 21.2602C6.03068 21.0912 5.99463 20.9262 5.94499 20.7671H6.6629C6.60663 20.9116 6.5754 21.0686 6.5754 21.2328V21.2602H6.05364ZM10.9589 22.1095C10.9589 22.3663 10.75 22.5753 10.4932 22.5753H7.86301C7.60619 22.5753 7.39726 22.3663 7.39726 22.1095V21.2328C7.39726 20.976 7.60619 20.7671 7.86301 20.7671H10.4932C10.75 20.7671 10.9589 20.976 10.9589 21.2328V22.1095ZM11.6933 20.7671H16.7948C16.7452 20.9262 16.7091 21.0912 16.6861 21.2602H11.7808V21.2328C11.7808 21.0686 11.7496 20.9116 11.6933 20.7671ZM19.6986 23.8903C18.475 23.8903 17.4795 22.8948 17.4795 21.6712C17.4795 20.4475 18.475 19.452 19.6986 19.452C20.9223 19.452 21.9178 20.4475 21.9178 21.6712C21.9178 22.8948 20.9223 23.8903 19.6986 23.8903ZM24.1919 14.6849H20.5753C20.0768 14.6849 19.6712 14.2793 19.6712 13.7807V11.9999H23.1593L24.1919 14.6849ZM24.5479 19.0684H24.0822C24.0681 19.0684 24.0548 19.0551 24.0548 19.041V18.6027C24.0548 18.5886 24.0681 18.5753 24.0822 18.5753H24.5479V19.0684ZM17.9178 10.7123C17.9178 10.4554 18.1267 10.2465 18.3836 10.2465H21.5628C22.1143 10.2465 22.6179 10.5924 22.8158 11.1071L22.8431 11.178H19.2603C19.0333 11.178 18.8493 11.362 18.8493 11.589V13.7807C18.8493 14.7325 19.6236 15.5068 20.5753 15.5068H24.5081L24.5479 15.6105V17.7534H24.0822C23.6139 17.7534 23.2329 18.1343 23.2329 18.6027V19.041C23.2329 19.5094 23.6139 19.8903 24.0822 19.8903H24.5479V21.2328C24.5479 21.2479 24.5357 21.2602 24.5205 21.2602H22.7671C22.7483 21.2602 22.7299 21.2619 22.7117 21.2644C22.5122 19.7793 21.2375 18.6301 19.6986 18.6301C19.0339 18.6301 18.4188 18.845 17.9178 19.2083V10.7123ZM17.0974 19.9466C17.0878 19.9459 17.0782 19.9451 17.0685 19.9451H10.4932H10.4658V19.0136H12.2466C12.9566 19.0136 13.5342 18.436 13.5342 17.726V15.9725C13.5342 15.9633 13.5335 15.9542 13.5329 15.9451H14.4384C15.2485 15.9451 15.9296 15.384 16.1146 14.6301H17.0959V19.9177C17.0959 19.9275 17.0967 19.937 17.0974 19.9466ZM14.4384 15.1232H12.2192V13.315H14.4384C14.9369 13.315 15.3425 13.7206 15.3425 14.2191C15.3425 14.7176 14.9369 15.1232 14.4384 15.1232ZM22.3288 7.67116H10.6086L11.2753 7.00447C11.4461 6.83368 11.6731 6.73965 11.9146 6.73965H22.3562V7.64376C22.3562 7.65883 22.3439 7.67116 22.3288 7.67116Z" fill="black"/>
<path d="M3.04084 14.63H4.79427C5.02123 14.63 5.20523 14.446 5.20523 14.2191C5.20523 13.9921 5.02123 13.8081 4.79427 13.8081H3.04084C2.81388 13.8081 2.62988 13.9921 2.62988 14.2191C2.62988 14.446 2.81388 14.63 3.04084 14.63Z" fill="black"/>
<path d="M3.04084 15.9452H4.79427C5.02123 15.9452 5.20523 15.7612 5.20523 15.5342C5.20523 15.3073 5.02123 15.1233 4.79427 15.1233H3.04084C2.81388 15.1233 2.62988 15.3073 2.62988 15.5342C2.62988 15.7612 2.81388 15.9452 3.04084 15.9452Z" fill="black"/>
</svg>
