<svg width="28" height="28" viewBox="0 0 28 28" fill="none" xmlns="http://www.w3.org/2000/svg">
<path d="M6.54756 16.6575C6.07923 16.6575 5.69824 17.0385 5.69824 17.5068C5.69824 17.9751 6.07923 18.3561 6.54756 18.3561C7.01589 18.3561 7.39687 17.9751 7.39687 17.5068C7.39687 17.0385 7.01589 16.6575 6.54756 16.6575ZM6.54756 17.5342C6.53243 17.5342 6.52016 17.5219 6.52016 17.5068C6.52016 17.4917 6.53243 17.4794 6.54756 17.4794C6.56268 17.4794 6.57495 17.4917 6.57495 17.5068C6.57495 17.5219 6.56268 17.5342 6.54756 17.5342Z" fill="black"/>
<path d="M10.9313 16.6575C10.463 16.6575 10.082 17.0385 10.082 17.5068C10.082 17.9751 10.463 18.3561 10.9313 18.3561C11.3997 18.3561 11.7807 17.9751 11.7807 17.5068C11.7807 17.0385 11.3997 16.6575 10.9313 16.6575ZM10.9313 17.5342C10.9162 17.5342 10.9039 17.5219 10.9039 17.5068C10.9039 17.4917 10.9162 17.4794 10.9313 17.4794C10.9465 17.4794 10.9587 17.4917 10.9587 17.5068C10.9587 17.5219 10.9465 17.5342 10.9313 17.5342Z" fill="black"/>
<path d="M24.0817 16.6575C23.6134 16.6575 23.2324 17.0385 23.2324 17.5068C23.2324 17.9751 23.6134 18.3561 24.0817 18.3561C24.5501 18.3561 24.931 17.9751 24.931 17.5068C24.931 17.0385 24.5501 16.6575 24.0817 16.6575ZM24.0817 17.5342C24.0666 17.5342 24.0543 17.5219 24.0543 17.5068C24.0543 17.4917 24.0666 17.4794 24.0817 17.4794C24.0969 17.4794 24.1091 17.4917 24.1091 17.5068C24.1091 17.5219 24.0969 17.5342 24.0817 17.5342Z" fill="black"/>
<path d="M27.8796 18.9697L27.5616 18.6517V17.5068C27.5616 17.4179 27.5328 17.3314 27.4795 17.2603L24.8493 13.7534C24.7132 13.5719 24.4556 13.5351 24.274 13.6712C24.0924 13.8074 24.0556 14.065 24.1918 14.2466L24.7505 14.9914C24.5545 14.9393 24.3495 14.91 24.1385 14.9055L17.7873 13.3178C17.6855 13.2923 17.5827 13.2735 17.4795 13.2605V12.685C17.4795 12.458 17.2955 12.274 17.0685 12.274C16.8415 12.274 16.6575 12.458 16.6575 12.685V13.2886C16.5482 13.31 16.4397 13.3381 16.333 13.3737L12.6575 14.5988V14.2234C12.9456 14.0484 13.1615 13.7624 13.2422 13.4129L14.3269 8.71238H14.8767C15.1037 8.71238 15.2877 8.52838 15.2877 8.30142C15.2877 8.07446 15.1037 7.89046 14.8767 7.89046H14.0083C14.0025 7.89035 13.9968 7.89035 13.991 7.89046H9.61644C8.90641 7.89046 8.32877 8.46811 8.32877 9.17813V10.5206H6.9863C6.51797 10.5206 6.13699 10.9016 6.13699 11.3699V12.274H5.64384V9.54126C5.64384 9.19726 5.50986 8.87391 5.26669 8.63074L4.64679 8.01079C4.4863 7.8503 4.22608 7.8503 4.06564 8.01079C3.90515 8.17128 3.90515 8.4315 4.06564 8.592L4.68559 9.21194C4.77353 9.29989 4.82197 9.41687 4.82197 9.54126V12.274H1.28767C0.819342 12.274 0.438356 12.655 0.438356 13.1233V14.9042H0.410959C0.184 14.9042 0 15.0882 0 15.3151V15.9269C0 16.5351 0.41463 17.052 1.00833 17.1839L3.96745 17.8415C4.13227 19.1191 5.22625 20.1096 6.54795 20.1096C7.46751 20.1096 8.2766 19.6299 8.73973 18.9079C9.20285 19.6299 10.0119 20.1096 10.9315 20.1096C12.3666 20.1096 13.5342 18.942 13.5342 17.5069C13.5342 17.3146 13.5127 17.1273 13.4729 16.9468L16.5929 15.9068C16.6143 15.8997 16.636 15.8941 16.6575 15.8878V17.0959H16.1918C15.4818 17.0959 14.9041 17.6736 14.9041 18.3836C14.9041 19.0936 15.4818 19.6713 16.1918 19.6713H17.9452C18.1722 19.6713 18.3562 19.4873 18.3562 19.2603C18.3562 19.0334 18.1722 18.8494 17.9452 18.8494H17.4795V17.5069V15.8455C17.5158 15.8523 17.552 15.8596 17.588 15.8686L21.5604 16.8617C21.5076 17.0682 21.4794 17.2843 21.4794 17.5069C21.4794 18.942 22.647 20.1096 24.0821 20.1096C25.4965 20.1096 26.6502 18.9753 26.6833 17.5687L26.7397 17.6439V18.822C26.7397 18.931 26.783 19.0354 26.8601 19.1125L27.2984 19.5509C27.3786 19.6311 27.4838 19.6713 27.589 19.6713C27.6941 19.6713 27.7993 19.6312 27.8796 19.5509C28.0401 19.3904 28.0401 19.1302 27.8796 18.9697ZM9.15069 9.17808C9.15069 8.92126 9.35962 8.71233 9.61644 8.71233H13.4834L12.4413 13.228C12.3922 13.4405 12.2056 13.589 11.9875 13.589H11.3425V10.0548C11.3425 9.82783 11.1585 9.64383 10.9315 9.64383C10.7045 9.64383 10.5205 9.82783 10.5205 10.0548V13.589H9.15069V9.17808ZM6.9589 11.3699C6.9589 11.3548 6.97118 11.3425 6.9863 11.3425H8.32877V13.589H6.9863C6.97118 13.589 6.9589 13.5767 6.9589 13.5616V12.6849V11.3699ZM1.26027 13.1233C1.26027 13.1082 1.27255 13.0959 1.28767 13.0959H6.13699V13.5616C6.13699 14.03 6.51797 14.411 6.9863 14.411H8.73973H11.8356V14.8728L11.7415 14.9041H1.26027V13.1233ZM9.03595 15.726C8.92597 15.843 8.82679 15.9701 8.73973 16.1059C8.65266 15.9701 8.55348 15.843 8.44351 15.726H9.03595ZM0.821918 15.9268V15.726H4.65238C4.32351 16.0759 4.09003 16.5162 3.99414 17.0054L1.18663 16.3815C0.971891 16.3338 0.821918 16.1468 0.821918 15.9268ZM6.54795 19.2877C5.56603 19.2877 4.76712 18.4888 4.76712 17.5068C4.76712 16.5249 5.56603 15.726 6.54795 15.726C7.52986 15.726 8.32877 16.5249 8.32877 17.5068C8.32877 18.4888 7.52986 19.2877 6.54795 19.2877ZM10.9315 19.2877C9.94959 19.2877 9.15069 18.4888 9.15069 17.5068C9.15069 16.5249 9.94959 15.726 10.9315 15.726C11.9134 15.726 12.7123 16.5249 12.7123 17.5068C12.7123 18.4888 11.9134 19.2877 10.9315 19.2877ZM16.6575 18.8493H16.1918C15.935 18.8493 15.726 18.6404 15.726 18.3836C15.726 18.1267 15.935 17.9178 16.1918 17.9178H16.6575V18.8493ZM17.7873 15.0712C17.3063 14.951 16.8033 14.9702 16.333 15.1271L13.1702 16.1814C13.0201 15.9289 12.8287 15.7039 12.6051 15.5157C12.6123 15.5029 12.6189 15.4897 12.6247 15.4761L16.5929 14.1534C16.9149 14.046 17.2589 14.0329 17.588 14.1151L22.601 15.3684C22.3208 15.5631 22.0808 15.8113 21.8953 16.0981L17.7873 15.0712ZM24.0822 19.2877C23.1003 19.2877 22.3014 18.4888 22.3014 17.5068C22.3014 17.2383 22.3615 16.9836 22.4684 16.755C22.4707 16.7503 22.4728 16.7454 22.475 16.7405C22.7619 16.1411 23.3745 15.726 24.0822 15.726C25.0641 15.726 25.863 16.5249 25.863 17.5068C25.863 18.4888 25.0641 19.2877 24.0822 19.2877Z" fill="black"/>
</svg>
