<svg width="28" height="21" viewBox="0 0 28 21" fill="none" xmlns="http://www.w3.org/2000/svg">
<path d="M8.58135 16.2321C8.36157 16.2887 8.22924 16.5128 8.2859 16.7326C8.31395 16.8415 8.32815 16.9545 8.32815 17.0685C8.32815 17.8087 7.7259 18.411 6.98568 18.411C6.24546 18.411 5.64321 17.8087 5.64321 17.0685C5.64321 16.3283 6.24546 15.726 6.98568 15.726C7.0996 15.726 7.21264 15.7403 7.32162 15.7683C7.54151 15.8249 7.76546 15.6925 7.82206 15.4727C7.87867 15.2529 7.74634 15.0288 7.5265 14.9723C7.35066 14.927 7.16869 14.9041 6.98568 14.9041C5.79225 14.9041 4.82129 15.875 4.82129 17.0684C4.82129 18.2619 5.79225 19.2328 6.98568 19.2328C8.1791 19.2328 9.15006 18.2619 9.15006 17.0684C9.15006 16.8854 9.12711 16.7033 9.08179 16.5275C9.02519 16.3078 8.80097 16.1755 8.58135 16.2321Z" fill="black"/>
<path d="M18.2259 16.2321C18.0061 16.2887 17.8738 16.5128 17.9304 16.7326C17.9585 16.8415 17.9727 16.9545 17.9727 17.0685C17.9727 17.8087 17.3704 18.411 16.6302 18.411C15.89 18.411 15.2877 17.8087 15.2877 17.0685C15.2877 16.3283 15.89 15.726 16.6302 15.726C16.7441 15.726 16.8572 15.7403 16.9662 15.7683C17.186 15.8249 17.41 15.6925 17.4666 15.4727C17.5232 15.2529 17.3909 15.0288 17.171 14.9723C16.9952 14.927 16.8132 14.9041 16.6302 14.9041C15.4368 14.9041 14.4658 15.875 14.4658 17.0684C14.4658 18.2619 15.4368 19.2328 16.6302 19.2328C17.8236 19.2328 18.7946 18.2619 18.7946 17.0684C18.7946 16.8854 18.7716 16.7033 18.7263 16.5275C18.6697 16.3078 18.4455 16.1755 18.2259 16.2321Z" fill="black"/>
<path d="M27.9138 19.5116C27.918 19.5061 27.9222 19.5006 27.9262 19.495C27.9298 19.4898 27.9332 19.4845 27.9365 19.4791C27.9403 19.4732 27.944 19.4672 27.9475 19.4611C27.9506 19.4555 27.9535 19.4497 27.9564 19.4438C27.9594 19.4378 27.9624 19.4319 27.9651 19.4257C27.9679 19.4194 27.9703 19.413 27.9728 19.4065C27.975 19.4006 27.9773 19.3947 27.9792 19.3887C27.9815 19.382 27.9833 19.3751 27.9852 19.3682C27.9868 19.3622 27.9885 19.3562 27.9898 19.3502C27.9913 19.3434 27.9925 19.3365 27.9937 19.3296C27.9948 19.3231 27.9959 19.3166 27.9967 19.3101C27.9974 19.3037 27.998 19.2971 27.9985 19.2905C27.999 19.2833 27.9994 19.276 27.9996 19.2688C27.9996 19.266 28 19.2632 28 19.2603C28 19.2569 27.9996 19.2535 27.9995 19.2502C27.9993 19.2428 27.999 19.2354 27.9984 19.228C27.9979 19.2216 27.9973 19.2153 27.9964 19.209C27.9956 19.2021 27.9945 19.1952 27.9933 19.1883C27.9921 19.1818 27.9909 19.1753 27.9894 19.169C27.9879 19.1623 27.9862 19.1558 27.9844 19.1493C27.9826 19.1429 27.9807 19.1365 27.9786 19.1303C27.9765 19.1239 27.9741 19.1176 27.9717 19.1113C27.9693 19.1051 27.9668 19.099 27.9641 19.093C27.9614 19.0868 27.9584 19.0807 27.9553 19.0747C27.9523 19.0688 27.9492 19.0629 27.9459 19.0571C27.9426 19.0514 27.9391 19.0457 27.9355 19.04C27.9318 19.0342 27.9279 19.0285 27.9239 19.0228C27.9203 19.0176 27.9164 19.0125 27.9124 19.0075C27.9079 19.0017 27.9032 18.996 27.8984 18.9904C27.8961 18.9879 27.8942 18.9851 27.8919 18.9826L23.07 13.7223C22.9166 13.555 22.6566 13.5438 22.4893 13.6971C22.322 13.8504 22.3107 14.1104 22.464 14.2777L22.8404 14.6883C22.8396 14.6899 22.8386 14.6914 22.8378 14.693L22.4097 15.5492L20.9276 10.9856C20.8018 10.5838 20.4872 10.2684 20.0862 10.1419L16.9857 9.16281C16.9852 9.15098 16.9845 9.13909 16.983 9.12709L16.219 3.0137H17.0685C17.2955 3.0137 17.4795 2.8297 17.4795 2.60274C17.4795 2.37579 17.2955 2.19178 17.0685 2.19178H10.9041V1.28767C10.9041 0.577645 10.3265 0 9.61646 0C8.90643 0 8.32878 0.577645 8.32878 1.28767V2.21365C7.57284 2.3337 6.97327 2.94406 6.88626 3.72719L6.64516 5.89733L3.42877 4.88165C3.37047 4.86324 3.31118 4.85886 3.25425 4.86598C2.93113 4.55486 2.50784 4.38357 2.05803 4.38357H0.41096C0.184 4.38357 0 4.56757 0 4.79453V6.98621C0 6.98626 0 6.98637 0 6.98648V15.0356C0 15.9026 0.514905 16.6835 1.31178 17.025L3.13951 17.8083C3.48647 19.616 5.07897 20.9863 6.98632 20.9863C8.85492 20.9863 10.4212 19.671 10.8103 17.9178H12.8061C13.1953 19.671 14.7615 20.9863 16.6301 20.9863C18.5333 20.9863 20.1232 19.622 20.4748 17.8202L20.894 19.0829C20.9113 19.1351 20.9389 19.1806 20.9726 19.2199C20.9814 19.2363 20.9907 19.2525 21.0005 19.2685C21.1564 19.5207 21.4265 19.6713 21.723 19.6713H27.5891H27.5892H27.5892C27.6024 19.6713 27.6156 19.6706 27.6288 19.6692C27.6337 19.6688 27.6385 19.6679 27.6433 19.6673C27.6515 19.6662 27.6596 19.6651 27.6676 19.6635C27.6733 19.6624 27.6788 19.661 27.6844 19.6597C27.6915 19.658 27.6986 19.6563 27.7056 19.6542C27.7113 19.6525 27.7169 19.6506 27.7225 19.6486C27.7293 19.6463 27.7359 19.644 27.7426 19.6413C27.7481 19.6391 27.7535 19.6367 27.7588 19.6342C27.7653 19.6313 27.7718 19.6283 27.7781 19.625C27.7835 19.6222 27.7887 19.6193 27.7938 19.6163C27.7998 19.6129 27.8058 19.6092 27.8117 19.6054C27.817 19.602 27.8221 19.5985 27.8271 19.5949C27.8326 19.591 27.838 19.5869 27.8433 19.5828C27.8485 19.5787 27.8535 19.5745 27.8585 19.5702C27.8613 19.5678 27.8642 19.5657 27.8668 19.5633C27.8689 19.5613 27.8707 19.5592 27.8728 19.5572C27.8781 19.5521 27.8832 19.5469 27.8882 19.5416C27.8927 19.5369 27.8971 19.5321 27.9013 19.5272C27.9056 19.5221 27.9097 19.5169 27.9138 19.5116ZM20.1447 11.2353L21.886 16.597L21.3143 17.7403L19.3884 11.9387C19.3468 11.8135 19.2478 11.716 19.1221 11.6762L5.54407 7.38845C5.4593 7.1507 5.32209 6.93273 5.13831 6.74894L4.45798 6.06861L19.839 10.9258C19.984 10.9715 20.0978 11.0857 20.1447 11.2353ZM9.27942 9.55492L9.29542 9.43498L11.345 10.0822H9.74106C9.60484 10.0822 9.48035 10.0258 9.39059 9.92325C9.30084 9.82073 9.26144 9.68994 9.27942 9.55492ZM5.64385 8.28188L6.35519 8.50654L6.22615 9.66796C6.1999 9.90418 6.00089 10.0823 5.76324 10.0823H5.64385V8.28188ZM9.64095 6.84341L9.92232 4.73294C9.95306 4.50253 10.1515 4.32878 10.384 4.32878H15.555L16.1253 8.89114L9.64095 6.84341ZM9.61646 0.821919C9.87328 0.821919 10.0822 1.03085 10.0822 1.28767V2.19178H9.1507V1.28767C9.1507 1.03085 9.35963 0.821919 9.61646 0.821919ZM7.70314 3.81798C7.7541 3.35946 8.1404 3.0137 8.60172 3.0137H15.3907L15.4523 3.50686H10.384C9.74133 3.50686 9.19257 3.9873 9.10763 4.62434L8.84528 6.59218L7.44407 6.14971L7.70314 3.81798ZM2.05803 5.20549C2.29951 5.20549 2.52658 5.29952 2.69732 5.47031L4.55711 7.3301C4.72784 7.50084 4.82193 7.7279 4.82193 7.96938V13.805C3.81365 14.4759 3.1325 15.6007 3.07316 16.8856L2.57327 16.6714C2.57464 16.6578 2.57535 16.6441 2.57535 16.6302V9.46605C2.57535 8.88791 2.3502 8.3444 1.94143 7.93558L0.821919 6.81612V5.20549H2.05803ZM0.821919 15.0356V7.97843L1.36022 8.51673C1.61381 8.77032 1.75343 9.10742 1.75343 9.46605V16.32L1.63556 16.2695C1.14132 16.0577 0.821919 15.5733 0.821919 15.0356ZM6.98632 20.1644C5.27924 20.1644 3.89042 18.7756 3.89042 17.0685C3.89042 15.3615 5.27924 13.9726 6.98632 13.9726C8.69339 13.9726 10.0822 15.3615 10.0822 17.0685C10.0822 18.7756 8.69339 20.1644 6.98632 20.1644ZM16.6302 20.1644C14.9231 20.1644 13.5343 18.7756 13.5343 17.0685C13.5343 15.3615 14.9231 13.9726 16.6302 13.9726C18.3372 13.9726 19.7261 15.3615 19.7261 17.0685C19.7261 18.7756 18.3372 20.1644 16.6302 20.1644ZM16.6302 13.1507C14.4699 13.1507 12.7124 14.9082 12.7124 17.0685C12.7124 17.0777 12.713 17.0868 12.7131 17.0959H10.9035C10.9035 17.0868 10.9042 17.0777 10.9042 17.0685C10.9042 14.9082 9.14665 13.1507 6.98637 13.1507C6.51497 13.1507 6.06286 13.2344 5.6439 13.3878V12.6576H14.0001C14.227 12.6576 14.411 12.4736 14.411 12.2466C14.411 12.0196 14.227 11.8356 14.0001 11.8356H5.64385V10.9041H5.76324C6.42029 10.9041 6.97048 10.4117 7.04303 9.75865L7.1541 8.75876L8.49969 9.18369L8.46467 9.44626C8.41558 9.81421 8.52769 10.1854 8.77224 10.4647C9.01678 10.744 9.36988 10.9041 9.74111 10.9041H13.9478L16.8975 11.8356H15.7535C15.5265 11.8356 15.3425 12.0196 15.3425 12.2466C15.3425 12.4736 15.5265 12.6576 15.7535 12.6576H18.761L19.263 14.1696C18.5669 13.5368 17.6428 13.1507 16.6302 13.1507ZM21.6997 18.8364C21.6917 18.8234 21.696 18.8148 21.6985 18.8097L23.4349 15.3367L26.6549 18.8493H21.7231C21.7173 18.8493 21.7078 18.8493 21.6997 18.8364Z" fill="black"/>
</svg>
