<svg width="30" height="30" viewBox="0 0 30 30" fill="none" xmlns="http://www.w3.org/2000/svg">
<path d="M30 11.0078C30 10.3766 29.4864 9.86298 28.8552 9.86298H6.76391C6.50865 9.57454 6.13726 9.39331 5.73129 9.39331H3.72798C3.48481 9.39331 3.28767 9.59045 3.28767 9.83362V11.272H0.90998C0.4082 11.272 0 11.6802 0 12.182V13.1213C0 13.6231 0.4082 14.0313 0.90998 14.0313H2.34834V15C2.34834 15.2431 2.54548 15.4403 2.78865 15.4403H4.22701V15.9687H0.90998C0.4082 15.9687 0 16.3769 0 16.8786V17.4329C0 17.8652 0.307632 18.2404 0.731507 18.3252L2.35174 18.6493C2.34969 18.6851 2.34834 18.721 2.34834 18.7573C2.34834 19.777 3.17795 20.6066 4.19765 20.6066C5.06566 20.6066 5.79546 20.0054 5.9936 19.1976H6.62877C6.82685 20.0054 7.55671 20.6066 8.42472 20.6066C9.29548 20.6066 10.0271 20.0015 10.2224 19.1899C10.2487 19.1947 10.2757 19.1976 10.3034 19.1976H19.7795C19.9775 20.0054 20.7074 20.6066 21.5754 20.6066C22.4434 20.6066 23.1732 20.0054 23.3714 19.1976H24.5894C24.9165 19.1976 25.2198 19.0208 25.3811 18.7363L29.1318 12.1174C29.6295 11.9933 30 11.5436 30 11.0078ZM29.1194 11.0078C29.1194 11.1534 29.0008 11.272 28.8552 11.272H7.19624L7.12074 10.7436H28.8552C29.0008 10.7436 29.1194 10.8621 29.1194 11.0078ZM7.42661 12.681H7.39755L7.32205 12.1526H11.2196L7.92564 13.4195V13.18C7.92564 12.9048 7.70178 12.681 7.42661 12.681ZM4.1683 10.2739H5.73129C5.97804 10.2739 6.19039 10.4582 6.22532 10.7024L6.50795 12.681H4.1683V10.2739ZM0.880626 13.1213V12.182C0.880626 12.1658 0.893777 12.1526 0.90998 12.1526H3.28767V12.681H2.84736C2.58211 12.681 2.36513 12.8892 2.3498 13.1506H0.90998C0.893777 13.1506 0.880626 13.1374 0.880626 13.1213ZM3.22896 13.5616H7.01384C7.01425 13.5616 7.01466 13.5617 7.01507 13.5617C7.01536 13.5617 7.0156 13.5616 7.01589 13.5616H7.04501V14.5597H3.22896V13.5616ZM5.10763 15.4403H6.10568V15.9687H5.10763V15.4403ZM4.19765 19.726C3.66352 19.726 3.22896 19.2914 3.22896 18.7573C3.22896 18.2232 3.66352 17.7886 4.19765 17.7886C4.73178 17.7886 5.16634 18.2232 5.16634 18.7573C5.16634 19.2914 4.73178 19.726 4.19765 19.726ZM8.42466 19.726C7.89053 19.726 7.45597 19.2914 7.45597 18.7573C7.45597 18.2232 7.89053 17.7886 8.42466 17.7886C8.95879 17.7886 9.39335 18.2232 9.39335 18.7573C9.39335 19.2914 8.95879 19.726 8.42466 19.726ZM10.2224 18.3247C10.027 17.5131 9.29542 16.908 8.42466 16.908C7.55665 16.908 6.82685 17.5092 6.62871 18.317H5.99354C5.79546 17.5092 5.0656 16.908 4.19759 16.908C3.52656 16.908 2.93789 17.2673 2.61376 17.8036L0.904168 17.4617C0.890489 17.459 0.880567 17.4469 0.880567 17.433V16.8786C0.880567 16.8625 0.893718 16.8493 0.909922 16.8493H14.9999C15.2751 16.8493 15.499 17.0731 15.499 17.3483V18.317H10.3033C10.2756 18.317 10.2487 18.3199 10.2224 18.3247ZM16.3789 17.3189H16.908V18.317H16.3796V17.3483C16.3796 17.3385 16.3791 17.3288 16.3789 17.3189ZM23.9545 18.317H23.3712C23.1732 17.5092 22.4433 16.908 21.5753 16.908C20.7073 16.908 19.9775 17.5092 19.7793 18.317H17.7887V15.9099H21.1043C21.1048 15.9099 21.1053 15.9101 21.1058 15.9101C21.1066 15.9101 21.1074 15.9099 21.1083 15.9099H23.454C23.7292 15.9099 23.953 16.1338 23.953 16.409V18.2876C23.953 18.2976 23.9539 18.3072 23.9545 18.317ZM19.8682 13.5616L20.4553 15.0293H17.7887V14.0606C17.7887 13.7855 18.0125 13.5616 18.2877 13.5616H19.8682ZM21.5753 19.726C21.0412 19.726 20.6067 19.2914 20.6067 18.7573C20.6067 18.2232 21.0412 17.7886 21.5753 17.7886C22.1095 17.7886 22.544 18.2232 22.544 18.7573C22.544 19.2914 22.1095 19.726 21.5753 19.726ZM24.8337 17.916V16.409C24.8337 15.6482 24.2148 15.0293 23.454 15.0293H21.4038L20.8034 13.5285C20.9635 13.4626 21.0763 13.3052 21.0763 13.1213C21.0763 12.8781 20.8792 12.681 20.636 12.681H20.1753C20.1747 12.681 20.1741 12.681 20.1736 12.681H18.2877C17.5269 12.681 16.908 13.2999 16.908 14.0606V16.4383H16.0357C15.7826 16.1507 15.4123 15.9687 15 15.9687H6.9863V15.4403H7.42661C7.70178 15.4403 7.92564 15.2164 7.92564 14.9413V14.363L13.6727 12.1526H28.0996L24.8337 17.916Z" fill="black"/>
<path d="M4.19813 18.3169C4.08247 18.3169 3.96858 18.3639 3.88697 18.4461C3.80478 18.5277 3.75781 18.6416 3.75781 18.7572C3.75781 18.8729 3.80478 18.9868 3.88697 19.0684C3.96858 19.1506 4.08247 19.1975 4.19813 19.1975C4.31378 19.1975 4.42768 19.1506 4.50928 19.0684C4.59147 18.9868 4.63844 18.8729 4.63844 18.7572C4.63844 18.6416 4.59147 18.5277 4.50928 18.4461C4.42768 18.3639 4.31378 18.3169 4.19813 18.3169Z" fill="black"/>
<path d="M8.42469 18.3169C8.30903 18.3169 8.19514 18.3639 8.11353 18.4461C8.03134 18.5277 7.98438 18.6416 7.98438 18.7572C7.98438 18.8729 8.03134 18.9868 8.11353 19.0684C8.19514 19.1506 8.30903 19.1975 8.42469 19.1975C8.54093 19.1975 8.65424 19.1506 8.73584 19.0684C8.81804 18.9868 8.865 18.8729 8.865 18.7572C8.865 18.6416 8.81804 18.5277 8.73584 18.4461C8.65424 18.3639 8.54093 18.3169 8.42469 18.3169Z" fill="black"/>
<path d="M21.5751 18.3169C21.4594 18.3169 21.3455 18.3639 21.2639 18.4461C21.1817 18.5277 21.1348 18.6416 21.1348 18.7572C21.1348 18.8729 21.1817 18.9868 21.2639 19.0684C21.3455 19.1506 21.4594 19.1975 21.5751 19.1975C21.6907 19.1975 21.8046 19.1506 21.8862 19.0684C21.9684 18.9868 22.0154 18.8729 22.0154 18.7572C22.0154 18.6416 21.9684 18.5277 21.8862 18.4461C21.8046 18.3639 21.6907 18.3169 21.5751 18.3169Z" fill="black"/>
</svg>
