<svg width="28" height="19" viewBox="0 0 28 19" fill="none" xmlns="http://www.w3.org/2000/svg">
<path d="M3.91731 15.2944C3.69035 15.2944 3.50635 15.4784 3.50635 15.7054C3.50635 15.9622 3.29742 16.1711 3.0406 16.1711C2.78378 16.1711 2.57485 15.9622 2.57485 15.7054C2.57485 15.4486 2.78378 15.2396 3.0406 15.2396C3.26756 15.2396 3.45156 15.0556 3.45156 14.8287C3.45156 14.6017 3.26756 14.4177 3.0406 14.4177C2.33057 14.4177 1.75293 14.9954 1.75293 15.7054C1.75293 16.4154 2.33057 16.9931 3.0406 16.9931C3.75063 16.9931 4.32827 16.4154 4.32827 15.7054C4.32827 15.4784 4.14427 15.2944 3.91731 15.2944Z" fill="black"/>
<path d="M9.17806 15.2944C8.9511 15.2944 8.7671 15.4784 8.7671 15.7054C8.7671 15.9622 8.55817 16.1711 8.30134 16.1711C8.04452 16.1711 7.83559 15.9622 7.83559 15.7054C7.83559 15.4486 8.04452 15.2396 8.30134 15.2396C8.5283 15.2396 8.7123 15.0556 8.7123 14.8287C8.7123 14.6017 8.5283 14.4177 8.30134 14.4177C7.59132 14.4177 7.01367 14.9954 7.01367 15.7054C7.01367 16.4154 7.59132 16.9931 8.30134 16.9931C9.01137 16.9931 9.58902 16.4154 9.58902 15.7054C9.58902 15.4784 9.40501 15.2944 9.17806 15.2944Z" fill="black"/>
<path d="M23.2054 15.2944C22.9784 15.2944 22.7944 15.4784 22.7944 15.7054C22.7944 15.9622 22.5855 16.1711 22.3287 16.1711C22.0719 16.1711 21.8629 15.9622 21.8629 15.7054C21.8629 15.4486 22.0719 15.2396 22.3287 15.2396C22.5556 15.2396 22.7396 15.0556 22.7396 14.8287C22.7396 14.6017 22.5556 14.4177 22.3287 14.4177C21.6187 14.4177 21.041 14.9954 21.041 15.7054C21.041 16.4154 21.6187 16.9931 22.3287 16.9931C23.0387 16.9931 23.6164 16.4154 23.6164 15.7054C23.6164 15.4784 23.4324 15.2944 23.2054 15.2944Z" fill="black"/>
<path d="M27.9995 9.55847C27.9993 9.54987 27.999 9.54127 27.9982 9.53261C27.9977 9.5267 27.9969 9.52083 27.9962 9.51502C27.9952 9.50779 27.9942 9.50061 27.9929 9.49338C27.9915 9.48604 27.9899 9.47886 27.9881 9.47168C27.9867 9.46609 27.9854 9.4605 27.9838 9.45491C27.9814 9.44642 27.9785 9.43815 27.9756 9.42993C27.9745 9.42691 27.9738 9.42384 27.9726 9.42078L26.2132 4.84615C25.894 4.01628 25.0821 3.45875 24.193 3.45875H20.5753C19.8653 3.45875 19.2877 4.03639 19.2877 4.74642V5.03152L17.7068 3.10302C17.57 2.93623 17.3933 2.81064 17.1957 2.73996L9.72778 0.0670238C9.54625 0.0020375 9.34723 -0.0161543 9.15222 0.0144759L4.02411 0.819024L3.29737 0.558859C2.62899 0.319626 1.89036 0.668832 1.65107 1.33733L0.46937 4.63902C0.353425 4.96286 0.370575 5.31245 0.517589 5.62341C0.602575 5.80308 0.725973 5.95634 0.876712 6.077V11.7601C0.876712 12.2923 1.11896 12.7689 1.4989 13.0858C0.60274 13.6154 0 14.591 0 15.7053C0 17.3821 1.36422 18.7464 3.0411 18.7464C4.16296 18.7464 5.14411 18.1353 5.67123 17.229C6.19836 18.1353 7.17951 18.7464 8.30137 18.7464C9.83879 18.7464 11.1126 17.5993 11.3139 16.1162H11.8356V16.1436C11.8356 16.8537 12.4133 17.4313 13.1233 17.4313H15.7534C16.4635 17.4313 17.0411 16.8537 17.0411 16.1436V16.1162H19.3162C19.5176 17.5993 20.7913 18.7464 22.3288 18.7464C23.8676 18.7464 25.1424 17.5972 25.3419 16.1121C25.36 16.1145 25.3784 16.1162 25.3973 16.1162H27.1507C27.619 16.1162 28 15.7352 28 15.2669V9.56828C28 9.565 27.9996 9.56176 27.9995 9.55847ZM27.1781 13.1025H26.7123C26.6982 13.1025 26.6849 13.0892 26.6849 13.0751V12.6368C26.6849 12.6227 26.6982 12.6094 26.7123 12.6094H27.1781V13.1025ZM26.8221 8.71897H22.7671C22.2686 8.71897 21.863 8.31338 21.863 7.81486V6.03404H25.7894L26.8221 8.71897ZM17.6418 12.6642C17.9466 12.4886 18.1934 12.1929 18.3237 11.8288L19.2877 9.13552V12.6642H17.6418ZM19.1687 6.1828C19.2478 6.27924 19.2882 6.41354 19.2877 6.55831V6.5673C19.2864 6.65426 19.2704 6.74478 19.2387 6.83311L17.5498 11.5519C17.4643 11.7907 17.2812 11.9705 17.083 12.01L14.3383 12.5569L16.4384 6.68949C16.5149 6.47579 16.4037 6.24056 16.19 6.16406C15.9763 6.08757 15.7411 6.1988 15.6645 6.4125L13.4971 12.4681C13.4836 12.5057 13.4763 12.544 13.474 12.582L6.37436 10.0409C6.39677 10.0101 6.41584 9.97606 6.42932 9.93837L8.59677 3.8828C8.67326 3.66916 8.56203 3.43393 8.34833 3.35743C8.13474 3.28089 7.89945 3.39217 7.8229 3.60587L5.71151 9.50489L2.68077 6.10275L4.28899 1.60954L8.79469 0.902586L8.39288 2.02516C8.31638 2.23886 8.42762 2.47409 8.64131 2.55059C8.68707 2.56697 8.73381 2.57475 8.77978 2.57475C8.94849 2.57475 9.10663 2.47009 9.16674 2.3022L9.66263 0.916722L16.7304 3.44642L16.2345 4.8319C16.158 5.04554 16.2692 5.28078 16.4829 5.35733C16.5287 5.37371 16.5754 5.38143 16.6214 5.38143C16.7901 5.38143 16.9482 5.27678 17.0083 5.10883L17.3973 4.02209L19.1687 6.1828ZM1.24318 4.91601L2.42488 1.61431C2.49293 1.42417 2.6726 1.30543 2.86384 1.30543C2.91584 1.30543 2.96871 1.3142 3.02033 1.33272L3.45879 1.48965L1.96312 5.66839L1.5246 5.51141C1.40751 5.46949 1.3137 5.3845 1.26055 5.27201C1.20745 5.15957 1.20126 5.03316 1.24318 4.91601ZM2.60274 12.6642C2.10422 12.6642 1.69863 12.2586 1.69863 11.7601V6.44669L1.97452 6.54543L5.4274 10.4214C5.55868 10.5687 5.72405 10.681 5.90559 10.746L11.2648 12.6642H3.0411H2.60274ZM6.22521 13.4861C6.00838 13.6891 5.82148 13.9233 5.67123 14.1815C5.52104 13.9233 5.33408 13.6891 5.11726 13.4861H6.22521ZM3.0411 17.9244C1.81742 17.9244 0.821918 16.9289 0.821918 15.7053C0.821918 14.4816 1.81742 13.4861 3.0411 13.4861C4.26477 13.4861 5.26027 14.4816 5.26027 15.7053C5.26027 16.9289 4.26477 17.9244 3.0411 17.9244ZM8.30137 17.9244C7.0777 17.9244 6.08219 16.9289 6.08219 15.7053C6.08219 14.4816 7.0777 13.4861 8.30137 13.4861C9.52504 13.4861 10.5205 14.4816 10.5205 15.7053C10.5205 16.9289 9.52504 17.9244 8.30137 17.9244ZM16.2192 16.1436C16.2192 16.4004 16.0102 16.6094 15.7534 16.6094H13.1233C12.8665 16.6094 12.6575 16.4004 12.6575 16.1436V15.2669C12.6575 15.0101 12.8665 14.8012 13.1233 14.8012H15.7534C16.0102 14.8012 16.2192 15.0101 16.2192 15.2669V16.1436ZM15.7534 13.9792H13.1233C12.4133 13.9792 11.8356 14.5569 11.8356 15.2669V15.2943H11.3139C11.2176 14.585 10.8762 13.9529 10.3775 13.4861H20.2526C19.754 13.9529 19.4125 14.585 19.3162 15.2943H17.0411V15.2669C17.0411 14.5569 16.4635 13.9792 15.7534 13.9792ZM22.3288 17.9244C21.1051 17.9244 20.1096 16.9289 20.1096 15.7053C20.1096 14.4816 21.1051 13.4861 22.3288 13.4861C23.5524 13.4861 24.5479 14.4816 24.5479 15.7053C24.5479 16.9289 23.5524 17.9244 22.3288 17.9244ZM27.1507 15.2943H25.3973C25.3784 15.2943 25.36 15.296 25.3419 15.2985C25.1424 13.8133 23.8676 12.6642 22.3288 12.6642H20.1096V6.53048C20.1096 6.529 20.1096 6.52746 20.1096 6.52593V4.74637C20.1096 4.48954 20.3185 4.28061 20.5753 4.28061H24.193C24.7444 4.28061 25.248 4.62648 25.446 5.14116L25.4733 5.21212H21.4521C21.2251 5.21212 21.0411 5.39612 21.0411 5.62308V7.81486C21.0411 8.76659 21.8154 9.54089 22.7671 9.54089H27.1382L27.1781 9.64461V11.7875H26.7123C26.244 11.7875 25.863 12.1684 25.863 12.6368V13.0751C25.863 13.5435 26.244 13.9244 26.7123 13.9244H27.1781V15.2669C27.1781 15.282 27.1658 15.2943 27.1507 15.2943Z" fill="black"/>
<path d="M13.5623 15.2942C13.4538 15.2942 13.3481 15.338 13.2719 15.4147C13.1952 15.4909 13.1514 15.5972 13.1514 15.7051C13.1514 15.8131 13.1952 15.9194 13.2719 15.9956C13.3481 16.0723 13.4538 16.1161 13.5623 16.1161C13.6703 16.1161 13.7766 16.0723 13.8527 15.9956C13.9294 15.9194 13.9733 15.8131 13.9733 15.7051C13.9733 15.5972 13.9294 15.4909 13.8527 15.4147C13.7766 15.338 13.6703 15.2942 13.5623 15.2942Z" fill="black"/>
</svg>
