<svg width="24" height="16" viewBox="0 0 24 16" fill="none" xmlns="http://www.w3.org/2000/svg">
<path d="M22.7034 2.46506C22.4441 1.50114 21.6841 0.741302 20.7203 0.48175C18.9596 0 11.9167 0 11.9167 0C11.9167 0 4.87407 0 3.11337 0.463486C2.16814 0.722763 1.38962 1.50128 1.13034 2.46506C0.666992 4.22562 0.666992 7.87678 0.666992 7.87678C0.666992 7.87678 0.666992 11.5464 1.13034 13.2885C1.38989 14.2523 2.1496 15.0121 3.11351 15.2717C4.89261 15.7536 11.917 15.7536 11.917 15.7536C11.917 15.7536 18.9596 15.7536 20.7203 15.2901C21.6842 15.0307 22.4441 14.2708 22.7036 13.3071C23.1669 11.5464 23.1669 7.89532 23.1669 7.89532C23.1669 7.89532 23.1854 4.22562 22.7034 2.46506ZM9.67441 11.2499V4.50371L15.5309 7.87678L9.67441 11.2499Z" fill="#E36931"/>
</svg>
